<?xml version="1.0" encoding="UTF-8"?>
<svg width="42px" height="67px" viewBox="0 0 42 67" version="1.1" xmlns="http://www.w3.org/2000/svg" xmlns:xlink="http://www.w3.org/1999/xlink">
    <!-- Generator: Sketch 50.2 (55047) - http://www.bohemiancoding.com/sketch -->
    <title>Group 15</title>
    <desc>Created with Sketch.</desc>
    <defs></defs>
    <g id="Page-6" stroke="none" stroke-width="1" fill="none" fill-rule="evenodd">
        <g id="OIUFTH1" transform="translate(-257.000000, -350.000000)" fill="#464644">
            <g id="Group-15" transform="translate(257.000000, 350.000000)">
                <path d="M31.438,40.259 C30.037,43.062 25.88,45.106 20.967,45.106 C15.895,45.106 11.616,42.921 10.374,39.969 L12.644,39.202 L12.644,35.14 C15.11,37.334 18.118,38.531 21.191,38.531 C24.115,38.531 26.899,37.493 29.29,35.514 L29.29,39.391 L31.438,40.259" id="Fill-23"></path>
                <path d="M35.875,21.184 C35.577,23.107 34.698,24.415 34.007,24.668 L33.549,24.846 L33.428,25.313 C32.597,28.601 30.906,31.543 28.664,33.589 C26.479,35.598 23.9,36.663 21.191,36.663 C18.296,36.663 15.567,35.466 13.307,33.196 C11.262,31.16 9.767,28.441 8.973,25.331 L8.843,24.837 L8.356,24.678 C8.347,24.678 8.318,24.658 8.254,24.621 C7.59,24.229 6.787,22.996 6.517,21.175 C6.357,20.118 6.404,19.092 6.638,18.289 L7.843,18.055 L7.936,18.008 C8.001,17.989 8.16,17.942 8.469,17.887 L9.132,18.896 L9.244,19.119 L9.337,19.193 L9.599,19.604 C10.29,20.643 11,21.492 12.905,21.492 L13.568,21.492 L13.98,21.268 C14.288,21.137 16.651,20.754 21.191,20.754 C25.684,20.754 28.104,21.146 28.468,21.286 L28.832,21.492 L29.495,21.492 C31.363,21.492 32.074,20.679 32.746,19.699 L33.102,19.147 L33.13,19.109 L33.242,18.933 L33.933,17.887 C34.223,17.942 34.372,17.989 34.437,18.008 L34.54,18.045 L35.773,18.391 C35.979,19.185 36.025,20.175 35.875,21.184 Z M36.501,17.624 L34.829,17.157 L34.745,17.13 C34.587,17.073 34.231,16.972 33.493,16.858 L32.447,18.438 L32.41,18.512 L32.363,18.559 L32.205,18.811 C32.121,18.941 32.046,19.063 31.971,19.175 C31.363,20.063 30.888,20.559 29.495,20.559 L29.075,20.559 L28.869,20.445 C28.459,20.23 25.778,19.819 21.191,19.819 C16.764,19.819 14.008,20.193 13.531,20.445 L13.326,20.559 L12.905,20.559 C11.476,20.559 11.009,20.044 10.393,19.109 C10.327,19.008 10.262,18.904 10.187,18.792 L10.037,18.559 L9.991,18.522 L9.944,18.428 L8.907,16.858 C8.16,16.972 7.805,17.073 7.646,17.121 L7.563,17.157 L5.946,17.475 C5.517,18.456 5.367,19.829 5.591,21.314 C5.881,23.258 6.75,24.817 7.749,25.406 C7.852,25.472 7.955,25.528 8.067,25.564 C8.907,28.871 10.523,31.749 12.644,33.86 C14.989,36.205 17.959,37.597 21.191,37.597 C24.218,37.597 27.021,36.373 29.29,34.28 C31.644,32.132 33.438,29.086 34.335,25.546 C35.465,25.126 36.474,23.444 36.801,21.314 C37.006,19.904 36.875,18.587 36.501,17.624 Z" id="Fill-24"></path>
                <polyline id="Fill-25" points="0.052 59.492 8.067 59.492 8.067 52.618 34.045 52.618 34.045 59.492 41.929 59.492 41.929 66.723 0.006 66.723 0.006 59.492 0.052 59.492"></polyline>
                <path d="M4.06,57.587 C2.957,57.587 2.06,56.689 2.06,55.579 C2.06,54.476 2.957,53.579 4.06,53.579 C5.171,53.579 6.067,54.476 6.067,55.579 C6.067,56.689 5.171,57.587 4.06,57.587 Z M0.986,41.389 L0.986,58.559 L7.133,58.559 L7.133,39.483 L0.986,41.389 Z" id="Fill-26"></path>
                <path d="M38.052,57.587 C36.941,57.587 36.054,56.689 36.054,55.579 C36.054,54.476 36.941,53.579 38.052,53.579 C39.154,53.579 40.051,54.476 40.051,55.579 C40.051,56.689 39.154,57.587 38.052,57.587 Z M34.979,39.483 L34.979,58.559 L41.125,58.559 L41.125,41.389 L34.979,39.483 Z" id="Fill-27"></path>
                <path d="M35.502,10.852 L35.502,16.569 C35.502,16.308 34.68,16.073 33.242,15.879 C33.176,15.868 33.102,15.859 33.036,15.85 L31.653,17.942 C31.644,17.951 31.644,17.961 31.635,17.97 C30.757,19.307 30.663,19.624 29.495,19.624 L29.309,19.624 C28.523,19.203 25.18,18.885 21.191,18.885 C17.212,18.885 13.896,19.193 13.093,19.624 L12.905,19.624 C11.729,19.624 11.635,19.307 10.767,17.97 C10.757,17.961 10.757,17.951 10.748,17.942 L9.355,15.85 C9.29,15.859 9.216,15.868 9.15,15.879 C7.722,16.073 6.89,16.308 6.89,16.569 L6.89,10.852 C6.89,4.584 13.289,0.334 21.191,0.334 C29.094,0.334 35.502,4.584 35.502,10.852" id="Fill-28"></path>
            </g>
        </g>
    </g>
</svg>