<?xml version="1.0" encoding="UTF-8"?>
<svg width="72px" height="44px" viewBox="0 0 72 44" version="1.1" xmlns="http://www.w3.org/2000/svg" xmlns:xlink="http://www.w3.org/1999/xlink">
    <!-- Generator: Sketch 50.2 (55047) - http://www.bohemiancoding.com/sketch -->
    <title>Group 18</title>
    <desc>Created with Sketch.</desc>
    <defs></defs>
    <g id="Page-6" stroke="none" stroke-width="1" fill="none" fill-rule="evenodd">
        <g id="OIUFTH1" transform="translate(-135.000000, -182.000000)" fill="#464644">
            <g id="Group-18" transform="translate(135.000000, 182.000000)">
                <path d="M6.7,35.6415 L64.67,35.6415 L64.67,3.4415 L6.7,3.4415 L6.7,35.6415 Z M65.5,0.2315 L5.87,0.2315 C4.84,0.2315 4,1.0015 4,1.9315 L4,37.3015 C4,38.2415 4.84,39.0015 5.87,39.0015 L65.5,39.0015 C66.53,39.0015 67.36,38.2415 67.36,37.3015 L67.36,1.9315 C67.36,1.0015 66.53,0.2315 65.5,0.2315 Z" id="Fill-42"></path>
                <path d="M71.481,40.2315 C71.481,42.1855 70.037,43.7685 68.251,43.7685 L3.226,43.7685 C1.445,43.7685 0,42.1855 0,40.2315 L71.481,40.2315" id="Fill-43"></path>
                <path d="M61.3497165,24.194696 C61.3397165,24.124696 61.3197165,24.064696 61.2897165,23.984696 C61.2797165,23.964696 61.2697165,23.944696 61.2597165,23.914696 C61.2397165,23.864696 61.2197165,23.804696 61.1897165,23.744696 C61.1797165,23.714696 61.1597165,23.683696 61.1497165,23.674696 C61.1297165,23.654696 61.1097165,23.624696 61.0997165,23.604696 C61.0897165,23.594696 61.0797165,23.574696 61.0697165,23.554696 L61.0097165,23.473696 C60.9497165,23.414696 60.9097165,23.364696 60.8897165,23.304696 L60.8697165,23.244696 C60.8497165,23.183696 60.8397165,23.124696 60.8397165,23.034696 C60.8397165,22.984696 60.8397165,22.924696 60.8297165,22.854696 C60.8297165,22.824696 60.8197165,22.804696 60.8197165,22.784696 L60.8197165,22.754696 C60.7997165,22.674696 60.7897165,22.594696 60.7597165,22.504696 C60.7597165,22.484696 60.7597165,22.464696 60.7497165,22.454696 L60.6097165,21.834696 C60.5797165,21.764696 60.5597165,21.694696 60.5397165,21.614696 L60.4997165,21.464696 C60.4897165,21.424696 60.4697165,21.384696 60.4597165,21.354696 C60.3797165,21.054696 60.2997165,20.794696 60.2397165,20.614696 C60.2197165,20.554696 60.1997165,20.504696 60.1897165,20.473696 C60.1797165,20.454696 60.1697165,20.444696 60.1697165,20.444696 L60.1597165,20.393696 C60.0997165,20.254696 59.8997165,20.223696 58.8897165,20.094696 C58.0197165,19.984696 56.8197165,19.834696 56.0497165,19.544696 C55.8897165,19.484696 55.6697165,19.393696 55.3897165,19.274696 C53.4197165,18.433696 48.8197165,16.464696 42.1097165,16.254696 C41.9697165,16.244696 41.8197165,16.244696 41.6697165,16.244696 C41.4797165,16.234696 41.2797165,16.234696 41.0897165,16.234696 C37.1097165,16.214696 36.8797165,16.284696 35.9997165,16.554696 C34.7797165,16.924696 31.6897165,18.494696 29.6497165,19.534696 C28.8597165,19.924696 28.2497165,20.244696 28.0397165,20.324696 C27.6897165,20.473696 26.7897165,20.604696 25.6597165,20.723696 L25.6297165,20.973696 C26.8197165,20.844696 27.7497165,20.723696 28.1397165,20.554696 C28.3497165,20.464696 28.9397165,20.164696 29.7597165,19.754696 C31.6697165,18.784696 34.8697165,17.164696 36.0797165,16.794696 C36.9297165,16.524696 37.1497165,16.464696 41.0897165,16.484696 C41.2797165,16.484696 41.4697165,16.484696 41.6697165,16.494696 C41.7997165,16.484696 41.9497165,16.494696 42.0897165,16.504696 C48.7597165,16.714696 53.3397165,18.664696 55.2897165,19.504696 C55.5697165,19.624696 55.7997165,19.714696 55.9597165,19.784696 C56.7597165,20.084696 57.9697165,20.234696 58.8597165,20.344696 C59.3097165,20.404696 59.8097165,20.464696 59.9397165,20.514696 C59.9397165,20.524696 59.9497165,20.544696 59.9497165,20.554696 C59.9697165,20.594696 59.9797165,20.634696 59.9997165,20.694696 C60.0597165,20.864696 60.1497165,21.134696 60.2197165,21.424696 C60.2397165,21.454696 60.2497165,21.494696 60.2597165,21.534696 L60.2997165,21.674696 C60.3197165,21.764696 60.3397165,21.844696 60.3697165,21.914696 L60.4997165,22.433696 C60.4997165,22.454696 60.4997165,22.473696 60.5097165,22.524696 L60.5197165,22.574696 C60.5497165,22.643696 60.5597165,22.714696 60.5697165,22.784696 C60.5697165,22.814696 60.5697165,22.834696 60.5797165,22.874696 C60.5897165,22.944696 60.5897165,22.994696 60.5897165,23.034696 C60.5897165,23.154696 60.5997165,23.244696 60.6397165,23.354696 C60.6497165,23.364696 60.6497165,23.374696 60.6497165,23.384696 C60.6897165,23.494696 60.7597165,23.564696 60.8197165,23.643696 L60.8297165,23.654696 C60.8397165,23.674696 60.8597165,23.694696 60.8597165,23.694696 L60.8897165,23.734696 C60.8997165,23.754696 60.9097165,23.784696 60.9397165,23.814696 L60.9597165,23.854696 C60.9897165,23.904696 61.0097165,23.954696 61.0397165,24.024696 L61.0497165,24.064696 C61.0797165,24.124696 61.0897165,24.183696 61.1097165,24.244696 C61.2797165,24.884696 61.2197165,26.683696 61.0597165,27.084696 C61.0497165,27.104696 61.0397165,27.124696 61.0397165,27.124696 C60.9297165,27.154696 60.8097165,27.234696 60.6497165,27.354696 C60.5997165,27.393696 60.5497165,27.433696 60.4697165,27.484696 C60.4597165,27.504696 60.4397165,27.514696 60.4097165,27.524696 C60.3897165,27.544696 60.3797165,27.554696 60.3597165,27.564696 L60.2597165,27.634696 C60.2197165,27.664696 60.1797165,27.683696 60.1397165,27.714696 C60.0997165,27.734696 60.0597165,27.764696 60.0297165,27.784696 C59.9497165,27.824696 59.8797165,27.874696 59.7897165,27.914696 L59.5997165,28.024696 C59.4097165,28.124696 59.0997165,28.214696 58.7397165,28.304696 C58.6997165,28.304696 58.6597165,28.314696 58.6197165,28.324696 C58.5897165,28.334696 58.5497165,28.344696 58.4897165,28.354696 L58.4597165,28.354696 C58.4297165,28.364696 58.4097165,28.364696 58.3997165,28.374696 C57.9797165,28.464696 57.5497165,28.524696 57.2697165,28.564696 C57.3197165,28.324696 57.3397165,28.064696 57.3397165,27.794696 C57.3397165,25.414696 55.4097165,23.473696 53.0297165,23.473696 C50.6597165,23.473696 48.7297165,25.414696 48.7297165,27.794696 C48.7297165,28.064696 48.7497165,28.324696 48.7997165,28.594696 L28.0797165,28.594696 C28.1297165,28.294696 28.1597165,28.044696 28.1597165,27.794696 C28.1597165,25.954696 26.9997165,24.374696 25.3697165,23.754696 L25.3397165,24.014696 C26.8397165,24.604696 27.9097165,26.084696 27.9097165,27.794696 C27.9097165,28.064696 27.8797165,28.354696 27.7997165,28.694696 L27.7697165,28.844696 L49.1097165,28.844696 L49.0797165,28.694696 C49.0097165,28.393696 48.9797165,28.094696 48.9797165,27.794696 C48.9797165,25.554696 50.7997165,23.723696 53.0297165,23.723696 C55.2697165,23.723696 57.0897165,25.554696 57.0897165,27.794696 C57.0897165,28.114696 57.0597165,28.404696 56.9797165,28.674696 L56.9697165,28.834696 L57.1297165,28.834696 C57.3997165,28.804696 57.9297165,28.734696 58.4697165,28.614696 C58.4797165,28.604696 58.4897165,28.604696 58.4997165,28.604696 C58.5197165,28.604696 58.5497165,28.594696 58.5497165,28.594696 C58.5897165,28.584696 58.6297165,28.574696 58.6797165,28.564696 C58.7097165,28.564696 58.7397165,28.554696 58.7897165,28.544696 C59.1697165,28.454696 59.5097165,28.354696 59.7097165,28.244696 L59.9097165,28.134696 C59.9997165,28.094696 60.0797165,28.044696 60.1697165,27.994696 C60.1997165,27.964696 60.2397165,27.944696 60.2797165,27.924696 C60.3197165,27.893696 60.3597165,27.864696 60.4197165,27.824696 L60.5497165,27.734696 C60.5797165,27.714696 60.6197165,27.694696 60.6297165,27.674696 C60.6897165,27.634696 60.7497165,27.594696 60.7997165,27.554696 C60.9297165,27.464696 61.0497165,27.374696 61.0897165,27.374696 L61.1597165,27.364696 L61.1997165,27.324696 C61.2297165,27.294696 61.2597165,27.234696 61.2897165,27.194696 C61.4697165,26.734696 61.5297165,24.884696 61.3497165,24.194696 Z M22.9297165,23.834696 L22.8597165,23.594696 C20.9597165,24.044696 19.5497165,25.754696 19.5497165,27.794696 C19.5497165,28.064696 19.5697165,28.324696 19.6197165,28.594696 L17.7197165,28.594696 C17.1797165,28.594696 17.1797165,28.594696 16.5997165,28.554696 L16.0197165,28.524696 C15.7597165,28.514696 15.5497165,28.454696 15.4097165,28.364696 C15.3597165,28.314696 15.3297165,28.284696 15.3097165,28.254696 L15.2897165,28.223696 C15.2797165,28.194696 15.2697165,28.174696 15.2597165,28.154696 C15.2397165,28.054696 15.2497165,27.954696 15.2697165,27.854696 C15.2797165,27.834696 15.2897165,27.814696 15.2897165,27.794696 C15.2997165,27.774696 15.2997165,27.764696 15.2997165,27.754696 C15.2997165,27.744696 15.3097165,27.734696 15.3097165,27.734696 L15.3197165,27.694696 C15.3497165,27.643696 15.3697165,27.614696 15.3697165,27.614696 L15.3997165,27.594696 L15.3997165,27.554696 C15.4097165,27.534696 15.4297165,27.504696 15.4397165,27.464696 C15.4497165,27.454696 15.4497165,27.444696 15.4597165,27.424696 C15.4697165,27.404696 15.4797165,27.374696 15.4797165,27.374696 C15.5097165,27.314696 15.5297165,27.264696 15.5497165,27.183696 C15.5597165,27.124696 15.5697165,27.064696 15.5697165,27.024696 C15.5697165,26.694696 15.5697165,26.404696 15.5897165,26.124696 L15.5797165,25.624696 C15.5997165,25.554696 15.5997165,25.473696 15.5997165,25.414696 L15.5997165,25.304696 C15.6097165,25.274696 15.6097165,25.234696 15.6097165,25.194696 C15.6097165,25.143696 15.6097165,25.084696 15.6197165,25.004696 C15.6197165,24.954696 15.6197165,24.904696 15.6297165,24.834696 C15.6297165,24.814696 15.6297165,24.784696 15.6397165,24.764696 L15.6397165,24.683696 C15.6497165,24.594696 15.6597165,24.514696 15.6697165,24.433696 C15.7697165,23.683696 15.9597165,23.424696 16.3397165,22.904696 C16.4197165,22.794696 16.5097165,22.674696 16.5997165,22.544696 C17.0097165,21.964696 19.6697165,21.594696 22.1897165,21.324696 L22.1197165,21.084696 C19.4297165,21.364696 16.8697165,21.734696 16.3997165,22.393696 C16.2997165,22.534696 16.2197165,22.654696 16.1397165,22.754696 C15.7497165,23.294696 15.5297165,23.594696 15.4297165,24.393696 C15.4197165,24.484696 15.3997165,24.564696 15.3897165,24.664696 L15.3897165,24.734696 C15.3797165,24.774696 15.3797165,24.804696 15.3797165,24.814696 C15.3697165,24.874696 15.3697165,24.944696 15.3697165,24.984696 C15.3597165,25.064696 15.3597165,25.134696 15.3597165,25.194696 C15.3597165,25.223696 15.3597165,25.254696 15.3497165,25.284696 L15.3497165,25.414696 C15.3497165,25.464696 15.3497165,25.524696 15.3397165,25.604696 L15.3397165,26.124696 C15.3197165,26.393696 15.3197165,26.694696 15.3197165,27.024696 C15.3197165,27.054696 15.3197165,27.094696 15.3097165,27.143696 C15.2997165,27.183696 15.2797165,27.214696 15.2497165,27.274696 C15.2497165,27.294696 15.2397165,27.304696 15.2297165,27.324696 C15.2197165,27.344696 15.2097165,27.364696 15.1897165,27.414696 L15.1697165,27.454696 C15.1597165,27.464696 15.1497165,27.484696 15.1497165,27.494696 C15.1397165,27.514696 15.1197165,27.544696 15.0997165,27.584696 C15.0897165,27.594696 15.0897165,27.614696 15.0697165,27.664696 L15.0297165,27.774696 C15.0097165,27.904696 14.9797165,28.054696 15.0197165,28.214696 C15.0297165,28.264696 15.0597165,28.304696 15.0697165,28.344696 L15.0897165,28.374696 C15.1297165,28.433696 15.1797165,28.494696 15.2597165,28.554696 C15.4397165,28.694696 15.6897165,28.764696 16.0097165,28.774696 L16.5797165,28.804696 C17.1797165,28.844696 17.1797165,28.844696 17.7197165,28.844696 L19.9297165,28.844696 L19.8997165,28.694696 C19.8297165,28.393696 19.7997165,28.094696 19.7997165,27.794696 C19.7997165,25.874696 21.1297165,24.254696 22.9297165,23.834696 Z M42.5397165,20.424696 C42.5397165,19.424696 42.4697165,18.324696 42.2997165,16.984696 L42.6297165,16.984696 C42.7297165,16.994696 42.8097165,16.994696 42.8797165,16.994696 C43.7497165,16.994696 45.6697165,17.194696 46.9997165,17.574696 C48.2397165,17.924696 50.6797165,19.364696 51.0197165,19.774696 C50.4397165,19.864696 46.8497165,20.164696 42.5397165,20.424696 Z M47.0697165,17.334696 C45.7197165,16.944696 43.7697165,16.744696 42.8797165,16.744696 C42.8097165,16.744696 42.7297165,16.744696 42.6297165,16.734696 L42.0197165,16.734696 L42.0397165,16.874696 C42.2197165,18.324696 42.2997165,19.494696 42.2897165,20.554696 L42.2897165,20.694696 L42.4197165,20.683696 C46.5897165,20.433696 50.9297165,20.094696 51.1697165,19.994696 C51.2497165,19.964696 51.2997165,19.904696 51.2997165,19.814696 C51.2897165,19.334696 48.1997165,17.654696 47.0697165,17.334696 Z M42.5397165,20.424696 C42.5397165,19.424696 42.4697165,18.324696 42.2997165,16.984696 L42.6297165,16.984696 C42.7297165,16.994696 42.8097165,16.994696 42.8797165,16.994696 C43.7497165,16.994696 45.6697165,17.194696 46.9997165,17.574696 C48.2397165,17.924696 50.6797165,19.364696 51.0197165,19.774696 C50.4397165,19.864696 46.8497165,20.164696 42.5397165,20.424696 Z M47.0697165,17.334696 C45.7197165,16.944696 43.7697165,16.744696 42.8797165,16.744696 C42.8097165,16.744696 42.7297165,16.744696 42.6297165,16.734696 L42.0197165,16.734696 L42.0397165,16.874696 C42.2197165,18.324696 42.2997165,19.494696 42.2897165,20.554696 L42.2897165,20.694696 L42.4197165,20.683696 C46.5897165,20.433696 50.9297165,20.094696 51.1697165,19.994696 C51.2497165,19.964696 51.2997165,19.904696 51.2997165,19.814696 C51.2897165,19.334696 48.1997165,17.654696 47.0697165,17.334696 Z M42.5397165,20.424696 C42.5397165,19.424696 42.4697165,18.324696 42.2997165,16.984696 L42.6297165,16.984696 C42.7297165,16.994696 42.8097165,16.994696 42.8797165,16.994696 C43.7497165,16.994696 45.6697165,17.194696 46.9997165,17.574696 C48.2397165,17.924696 50.6797165,19.364696 51.0197165,19.774696 C50.4397165,19.864696 46.8497165,20.164696 42.5397165,20.424696 Z M47.0697165,17.334696 C45.7197165,16.944696 43.7697165,16.744696 42.8797165,16.744696 C42.8097165,16.744696 42.7297165,16.744696 42.6297165,16.734696 L42.0197165,16.734696 L42.0397165,16.874696 C42.2197165,18.324696 42.2997165,19.494696 42.2897165,20.554696 L42.2897165,20.694696 L42.4197165,20.683696 C46.5897165,20.433696 50.9297165,20.094696 51.1697165,19.994696 C51.2497165,19.964696 51.2997165,19.904696 51.2997165,19.814696 C51.2897165,19.334696 48.1997165,17.654696 47.0697165,17.334696 Z M42.5397165,20.424696 C42.5397165,19.424696 42.4697165,18.324696 42.2997165,16.984696 L42.6297165,16.984696 C42.7297165,16.994696 42.8097165,16.994696 42.8797165,16.994696 C43.7497165,16.994696 45.6697165,17.194696 46.9997165,17.574696 C48.2397165,17.924696 50.6797165,19.364696 51.0197165,19.774696 C50.4397165,19.864696 46.8497165,20.164696 42.5397165,20.424696 Z M47.0697165,17.334696 C45.7197165,16.944696 43.7697165,16.744696 42.8797165,16.744696 C42.8097165,16.744696 42.7297165,16.744696 42.6297165,16.734696 L42.0197165,16.734696 L42.0397165,16.874696 C42.2197165,18.324696 42.2997165,19.494696 42.2897165,20.554696 L42.2897165,20.694696 L42.4197165,20.683696 C46.5897165,20.433696 50.9297165,20.094696 51.1697165,19.994696 C51.2497165,19.964696 51.2997165,19.904696 51.2997165,19.814696 C51.2897165,19.334696 48.1997165,17.654696 47.0697165,17.334696 Z M42.5397165,20.424696 C42.5397165,19.424696 42.4697165,18.324696 42.2997165,16.984696 L42.6297165,16.984696 C42.7297165,16.994696 42.8097165,16.994696 42.8797165,16.994696 C43.7497165,16.994696 45.6697165,17.194696 46.9997165,17.574696 C48.2397165,17.924696 50.6797165,19.364696 51.0197165,19.774696 C50.4397165,19.864696 46.8497165,20.164696 42.5397165,20.424696 Z M47.0697165,17.334696 C45.7197165,16.944696 43.7697165,16.744696 42.8797165,16.744696 C42.8097165,16.744696 42.7297165,16.744696 42.6297165,16.734696 L42.0197165,16.734696 L42.0397165,16.874696 C42.2197165,18.324696 42.2997165,19.494696 42.2897165,20.554696 L42.2897165,20.694696 L42.4197165,20.683696 C46.5897165,20.433696 50.9297165,20.094696 51.1697165,19.994696 C51.2497165,19.964696 51.2997165,19.904696 51.2997165,19.814696 C51.2897165,19.334696 48.1997165,17.654696 47.0697165,17.334696 Z" id="Fill-44"></path>
                <path d="M40.97,16.2315 C41.08,16.2405 41.18,16.2405 41.28,16.2405 L41.28,16.2315 L40.97,16.2315 Z M36,20.0215 C36.87,19.9905 37.82,19.9505 38.84,19.8915 C37.91,19.9315 36.95,19.9815 36,20.0215 Z" id="Fill-45"></path>
                <path d="M40.5049576,20.0715 C40.3149576,20.0815 40.1049576,20.0915 39.9049576,20.1015 C39.5949576,20.1215 39.2849576,20.1415 38.9849576,20.1515 C37.9649576,20.2105 37.0149576,20.2505 36.1449576,20.2815 C35.9449576,20.2915 35.7549576,20.2915 35.5549576,20.3015 C35.3049576,20.3115 35.0649576,20.3215 34.8349576,20.3315 C34.5249576,20.3415 34.2249576,20.3515 33.9249576,20.3615 C33.6349576,20.3615 33.3449576,20.3715 33.0749576,20.3715 C32.7049576,20.3815 32.3449576,20.3815 32.0149576,20.3815 L31.9449576,20.3815 C31.9349576,20.3715 31.9249576,20.3615 31.9149576,20.3515 L31.9749576,20.3515 C32.0849576,20.3515 32.2849576,20.3015 32.3249576,19.9315 C32.3449576,19.7615 32.3949576,19.3415 32.3949576,19.0005 C32.3949576,18.7415 32.1649576,18.6115 31.9149576,18.5915 L32.6649576,18.2315 C32.8049576,18.1615 32.9449576,18.0915 33.0849576,18.0315 C33.2949576,17.9415 33.4949576,17.8515 33.6949576,17.7615 C33.8549576,17.6815 34.0149576,17.6115 34.1749576,17.5515 C34.9949576,17.1915 35.7149576,16.9015 36.1749576,16.7415 C36.2249576,16.7215 36.2749576,16.7015 36.3249576,16.6915 C36.4049576,16.6615 36.4749576,16.6415 36.5349576,16.6215 C36.5749576,16.6115 36.6049576,16.6015 36.6249576,16.6015 C36.6949576,16.5915 36.7849576,16.5815 36.8849576,16.5615 C37.1149576,16.5415 37.4049576,16.5215 37.7149576,16.5115 C38.2149576,16.4915 38.8349576,16.4815 39.5749576,16.4815 C40.1049576,16.4815 40.6449576,16.4915 41.1149576,16.4915 L41.4249576,16.4915 L41.4249576,16.5005 C41.5949576,17.8115 41.6649576,18.9605 41.6649576,20.0005 C41.2649576,20.0215 40.8849576,20.0515 40.5049576,20.0715 Z M31.7049576,20.0005 C31.5549576,19.9315 31.4349576,19.8915 31.3449576,19.9515 C31.2649576,20.0005 31.2549576,20.0715 31.2649576,20.1115 C31.2649576,20.2105 31.3549576,20.2915 31.4849576,20.3715 C31.2849576,20.3715 31.0949576,20.3715 30.9249576,20.3615 C30.2749576,20.3515 29.8049576,20.3115 29.5249576,20.2615 C29.5449576,20.2315 29.5749576,20.2105 29.5949576,20.1915 C30.0049576,19.8515 30.4249576,19.4915 30.9649576,19.1815 C31.1049576,19.1015 31.2249576,19.0415 31.3349576,18.9815 C31.4949576,18.9115 31.6349576,18.8615 31.8549576,18.8415 C31.8549576,18.8415 32.1449576,18.8415 32.1449576,19.0005 C32.1449576,19.3315 32.0949576,19.7415 32.0749576,19.9015 C32.0549576,20.1015 31.9949576,20.1015 31.9749576,20.1015 C31.8949576,20.1015 31.7849576,20.0515 31.7049576,20.0005 Z M41.8949576,19.0815 C41.8949576,18.8615 41.8749576,18.6415 41.8649576,18.4015 C41.8249576,17.7715 41.7549576,17.0915 41.6649576,16.3615 L41.6449576,16.2505 L41.5349576,16.2505 C40.9649576,16.2415 40.2749576,16.2315 39.5749576,16.2315 C38.0549576,16.2315 37.0749576,16.2715 36.5849576,16.3515 C36.4149576,16.3815 35.8949576,16.5715 35.1949576,16.8515 C34.9749576,16.9415 34.7249576,17.0415 34.4649576,17.1515 C32.4449576,18.0115 29.6749576,19.3315 29.0549576,20.0615 C28.9949576,20.1415 28.9949576,20.2105 29.0049576,20.2505 C29.0149576,20.3115 29.0549576,20.3515 29.1049576,20.3815 C29.1449576,20.4115 29.1849576,20.4315 29.2049576,20.4315 C29.2249576,20.4415 29.2549576,20.4515 29.2849576,20.4605 C29.5549576,20.5415 30.0749576,20.5915 30.9149576,20.6115 C31.1949576,20.6215 31.4949576,20.6315 31.8249576,20.6315 L32.0149576,20.6315 C34.7149576,20.6315 38.8249576,20.4205 41.7949576,20.2415 L41.9149576,20.2315 L41.9149576,20.1115 C41.9149576,19.7815 41.9149576,19.4415 41.8949576,19.0815 Z" id="Fill-46"></path>
                <path d="M15.287,23.8915 L15.381,23.8945 C15.583,23.9005 15.787,23.9065 15.989,23.9065 C16.389,23.9065 16.702,23.8805 16.976,23.8235 C17.641,23.6655 17.868,23.1465 18.043,22.5185 C17.554,22.4865 17.069,22.4815 16.692,22.4815 C16.465,22.4815 16.238,22.4835 16.011,22.4855 L15.95,22.4855 L15.926,22.5195 C15.578,22.9975 15.392,23.2525 15.287,23.8915 Z M15.989,24.1565 C15.785,24.1565 15.578,24.1505 15.373,24.1445 L15,24.1335 L15.019,23.9955 C15.128,23.1905 15.352,22.8825 15.724,22.3715 L15.822,22.2365 L16.009,22.2355 C16.236,22.2335 16.464,22.2315 16.692,22.2315 C17.112,22.2315 17.664,22.2375 18.213,22.2785 L18.362,22.2905 L18.325,22.4355 C18.129,23.1805 17.884,23.8645 17.03,24.0675 C16.736,24.1285 16.406,24.1565 15.989,24.1565 Z" id="Fill-47"></path>
                <path d="M22.99,26.9215 L21.49,26.4315 C21.83,25.8715 22.38,25.4815 22.99,25.3515 L22.99,26.9215 Z M23.09,25.0815 C22.3,25.1915 21.59,25.7015 21.19,26.4415 L21.12,26.5715 L22.42,26.9915 L22.89,27.1515 L23.24,27.2605 L23.24,25.0615 L23.09,25.0815 Z M24.04,26.9215 L24.04,25.3515 C24.66,25.4915 25.2,25.8815 25.53,26.4315 L24.04,26.9215 Z M25.83,26.4415 C25.45,25.7215 24.74,25.2115 23.94,25.0815 L23.79,25.0505 L23.79,27.2605 L25.9,26.5715 L25.83,26.4415 Z M23.51,27.2815 C23.3,27.2815 23.14,27.4515 23.14,27.6615 C23.14,27.8515 23.31,28.0215 23.51,28.0215 C23.71,28.0215 23.88,27.8515 23.88,27.6615 C23.88,27.4515 23.72,27.2815 23.51,27.2815 Z M21.73,29.2015 C21.35,28.7715 21.14,28.2315 21.14,27.6615 C21.14,27.5815 21.15,27.5015 21.16,27.4315 L22.18,27.7605 L22.67,27.9215 L21.73,29.2015 Z M20.96,27.1015 L20.93,27.2415 C20.91,27.3715 20.89,27.5105 20.89,27.6615 C20.89,28.3515 21.16,29.0015 21.66,29.4915 L21.76,29.5905 L22.56,28.4815 L22.85,28.0905 L23.06,27.7815 L20.96,27.1015 Z M25.3,29.2015 L24.38,27.9515 L24.36,27.9215 L25.86,27.4415 C25.87,27.5105 25.87,27.5815 25.87,27.6615 C25.87,28.2415 25.68,28.7715 25.3,29.2015 Z M26.09,27.2515 L26.06,27.1115 L23.97,27.7815 L25.27,29.5905 L25.38,29.4915 C25.86,28.9915 26.12,28.3405 26.12,27.6615 C26.12,27.5215 26.11,27.3815 26.09,27.2515 Z M22.58,29.8315 L23.51,28.5415 L24.44,29.8215 C23.83,30.0905 23.15,30.0815 22.58,29.8315 Z M24.02,28.8005 L23.51,28.1115 L22.2,29.9215 L22.33,29.9915 C22.7,30.1815 23.09,30.2715 23.51,30.2715 C23.91,30.2715 24.31,30.1715 24.69,29.9915 L24.82,29.9215 L24.02,28.8005 Z M25.3,29.2015 L24.38,27.9515 L24.36,27.9215 L25.86,27.4415 C25.87,27.5105 25.87,27.5815 25.87,27.6615 C25.87,28.2415 25.68,28.7715 25.3,29.2015 Z M26.09,27.2515 L26.06,27.1115 L23.97,27.7815 L25.27,29.5905 L25.38,29.4915 C25.86,28.9915 26.12,28.3405 26.12,27.6615 C26.12,27.5215 26.11,27.3815 26.09,27.2515 Z M24.04,26.9215 L24.04,25.3515 C24.66,25.4915 25.2,25.8815 25.53,26.4315 L24.04,26.9215 Z M25.83,26.4415 C25.45,25.7215 24.74,25.2115 23.94,25.0815 L23.79,25.0505 L23.79,27.2605 L25.9,26.5715 L25.83,26.4415 Z M22.58,29.8315 L23.51,28.5415 L24.44,29.8215 C23.83,30.0905 23.15,30.0815 22.58,29.8315 Z M24.02,28.8005 L23.51,28.1115 L22.2,29.9215 L22.33,29.9915 C22.7,30.1815 23.09,30.2715 23.51,30.2715 C23.91,30.2715 24.31,30.1715 24.69,29.9915 L24.82,29.9215 L24.02,28.8005 Z M23.51,27.2815 C23.3,27.2815 23.14,27.4515 23.14,27.6615 C23.14,27.8515 23.31,28.0215 23.51,28.0215 C23.71,28.0215 23.88,27.8515 23.88,27.6615 C23.88,27.4515 23.72,27.2815 23.51,27.2815 Z M22.99,26.9215 L21.49,26.4315 C21.83,25.8715 22.38,25.4815 22.99,25.3515 L22.99,26.9215 Z M23.09,25.0815 C22.3,25.1915 21.59,25.7015 21.19,26.4415 L21.12,26.5715 L22.42,26.9915 L22.89,27.1515 L23.24,27.2605 L23.24,25.0615 L23.09,25.0815 Z M21.73,29.2015 C21.35,28.7715 21.14,28.2315 21.14,27.6615 C21.14,27.5815 21.15,27.5015 21.16,27.4315 L22.18,27.7605 L22.67,27.9215 L21.73,29.2015 Z M20.96,27.1015 L20.93,27.2415 C20.91,27.3715 20.89,27.5105 20.89,27.6615 C20.89,28.3515 21.16,29.0015 21.66,29.4915 L21.76,29.5905 L22.56,28.4815 L22.85,28.0905 L23.06,27.7815 L20.96,27.1015 Z M21.73,29.2015 C21.35,28.7715 21.14,28.2315 21.14,27.6615 C21.14,27.5815 21.15,27.5015 21.16,27.4315 L22.18,27.7605 L22.67,27.9215 L21.73,29.2015 Z M20.96,27.1015 L20.93,27.2415 C20.91,27.3715 20.89,27.5105 20.89,27.6615 C20.89,28.3515 21.16,29.0015 21.66,29.4915 L21.76,29.5905 L22.56,28.4815 L22.85,28.0905 L23.06,27.7815 L20.96,27.1015 Z M22.99,26.9215 L21.49,26.4315 C21.83,25.8715 22.38,25.4815 22.99,25.3515 L22.99,26.9215 Z M23.09,25.0815 C22.3,25.1915 21.59,25.7015 21.19,26.4415 L21.12,26.5715 L22.42,26.9915 L22.89,27.1515 L23.24,27.2605 L23.24,25.0615 L23.09,25.0815 Z M23.51,27.2815 C23.3,27.2815 23.14,27.4515 23.14,27.6615 C23.14,27.8515 23.31,28.0215 23.51,28.0215 C23.71,28.0215 23.88,27.8515 23.88,27.6615 C23.88,27.4515 23.72,27.2815 23.51,27.2815 Z M22.58,29.8315 L23.51,28.5415 L24.44,29.8215 C23.83,30.0905 23.15,30.0815 22.58,29.8315 Z M24.02,28.8005 L23.51,28.1115 L22.2,29.9215 L22.33,29.9915 C22.7,30.1815 23.09,30.2715 23.51,30.2715 C23.91,30.2715 24.31,30.1715 24.69,29.9915 L24.82,29.9215 L24.02,28.8005 Z M24.04,26.9215 L24.04,25.3515 C24.66,25.4915 25.2,25.8815 25.53,26.4315 L24.04,26.9215 Z M25.83,26.4415 C25.45,25.7215 24.74,25.2115 23.94,25.0815 L23.79,25.0505 L23.79,27.2605 L25.9,26.5715 L25.83,26.4415 Z M25.3,29.2015 L24.38,27.9515 L24.36,27.9215 L25.86,27.4415 C25.87,27.5105 25.87,27.5815 25.87,27.6615 C25.87,28.2415 25.68,28.7715 25.3,29.2015 Z M26.09,27.2515 L26.06,27.1115 L23.97,27.7815 L25.27,29.5905 L25.38,29.4915 C25.86,28.9915 26.12,28.3405 26.12,27.6615 C26.12,27.5215 26.11,27.3815 26.09,27.2515 Z M25.3,29.2015 L24.38,27.9515 L24.36,27.9215 L25.86,27.4415 C25.87,27.5105 25.87,27.5815 25.87,27.6615 C25.87,28.2415 25.68,28.7715 25.3,29.2015 Z M26.09,27.2515 L26.06,27.1115 L23.97,27.7815 L25.27,29.5905 L25.38,29.4915 C25.86,28.9915 26.12,28.3405 26.12,27.6615 C26.12,27.5215 26.11,27.3815 26.09,27.2515 Z M24.04,26.9215 L24.04,25.3515 C24.66,25.4915 25.2,25.8815 25.53,26.4315 L24.04,26.9215 Z M25.83,26.4415 C25.45,25.7215 24.74,25.2115 23.94,25.0815 L23.79,25.0505 L23.79,27.2605 L25.9,26.5715 L25.83,26.4415 Z M22.58,29.8315 L23.51,28.5415 L24.44,29.8215 C23.83,30.0905 23.15,30.0815 22.58,29.8315 Z M24.02,28.8005 L23.51,28.1115 L22.2,29.9215 L22.33,29.9915 C22.7,30.1815 23.09,30.2715 23.51,30.2715 C23.91,30.2715 24.31,30.1715 24.69,29.9915 L24.82,29.9215 L24.02,28.8005 Z M23.51,27.2815 C23.3,27.2815 23.14,27.4515 23.14,27.6615 C23.14,27.8515 23.31,28.0215 23.51,28.0215 C23.71,28.0215 23.88,27.8515 23.88,27.6615 C23.88,27.4515 23.72,27.2815 23.51,27.2815 Z M22.99,26.9215 L21.49,26.4315 C21.83,25.8715 22.38,25.4815 22.99,25.3515 L22.99,26.9215 Z M23.09,25.0815 C22.3,25.1915 21.59,25.7015 21.19,26.4415 L21.12,26.5715 L22.42,26.9915 L22.89,27.1515 L23.24,27.2605 L23.24,25.0615 L23.09,25.0815 Z M21.73,29.2015 C21.35,28.7715 21.14,28.2315 21.14,27.6615 C21.14,27.5815 21.15,27.5015 21.16,27.4315 L22.18,27.7605 L22.67,27.9215 L21.73,29.2015 Z M20.96,27.1015 L20.93,27.2415 C20.91,27.3715 20.89,27.5105 20.89,27.6615 C20.89,28.3515 21.16,29.0015 21.66,29.4915 L21.76,29.5905 L22.56,28.4815 L22.85,28.0905 L23.06,27.7815 L20.96,27.1015 Z M21.73,29.2015 C21.35,28.7715 21.14,28.2315 21.14,27.6615 C21.14,27.5815 21.15,27.5015 21.16,27.4315 L22.18,27.7605 L22.67,27.9215 L21.73,29.2015 Z M20.96,27.1015 L20.93,27.2415 C20.91,27.3715 20.89,27.5105 20.89,27.6615 C20.89,28.3515 21.16,29.0015 21.66,29.4915 L21.76,29.5905 L22.56,28.4815 L22.85,28.0905 L23.06,27.7815 L20.96,27.1015 Z M22.99,26.9215 L21.49,26.4315 C21.83,25.8715 22.38,25.4815 22.99,25.3515 L22.99,26.9215 Z M23.09,25.0815 C22.3,25.1915 21.59,25.7015 21.19,26.4415 L21.12,26.5715 L22.42,26.9915 L22.89,27.1515 L23.24,27.2605 L23.24,25.0615 L23.09,25.0815 Z M23.51,27.2815 C23.3,27.2815 23.14,27.4515 23.14,27.6615 C23.14,27.8515 23.31,28.0215 23.51,28.0215 C23.71,28.0215 23.88,27.8515 23.88,27.6615 C23.88,27.4515 23.72,27.2815 23.51,27.2815 Z M22.58,29.8315 L23.51,28.5415 L24.44,29.8215 C23.83,30.0905 23.15,30.0815 22.58,29.8315 Z M24.02,28.8005 L23.51,28.1115 L22.2,29.9215 L22.33,29.9915 C22.7,30.1815 23.09,30.2715 23.51,30.2715 C23.91,30.2715 24.31,30.1715 24.69,29.9915 L24.82,29.9215 L24.02,28.8005 Z M24.04,26.9215 L24.04,25.3515 C24.66,25.4915 25.2,25.8815 25.53,26.4315 L24.04,26.9215 Z M25.83,26.4415 C25.45,25.7215 24.74,25.2115 23.94,25.0815 L23.79,25.0505 L23.79,27.2605 L25.9,26.5715 L25.83,26.4415 Z M25.3,29.2015 L24.38,27.9515 L24.36,27.9215 L25.86,27.4415 C25.87,27.5105 25.87,27.5815 25.87,27.6615 C25.87,28.2415 25.68,28.7715 25.3,29.2015 Z M26.09,27.2515 L26.06,27.1115 L23.97,27.7815 L25.27,29.5905 L25.38,29.4915 C25.86,28.9915 26.12,28.3405 26.12,27.6615 C26.12,27.5215 26.11,27.3815 26.09,27.2515 Z M25.3,29.2015 L24.38,27.9515 L24.36,27.9215 L25.86,27.4415 C25.87,27.5105 25.87,27.5815 25.87,27.6615 C25.87,28.2415 25.68,28.7715 25.3,29.2015 Z M26.09,27.2515 L26.06,27.1115 L23.97,27.7815 L25.27,29.5905 L25.38,29.4915 C25.86,28.9915 26.12,28.3405 26.12,27.6615 C26.12,27.5215 26.11,27.3815 26.09,27.2515 Z M24.04,26.9215 L24.04,25.3515 C24.66,25.4915 25.2,25.8815 25.53,26.4315 L24.04,26.9215 Z M25.83,26.4415 C25.45,25.7215 24.74,25.2115 23.94,25.0815 L23.79,25.0505 L23.79,27.2605 L25.9,26.5715 L25.83,26.4415 Z M22.58,29.8315 L23.51,28.5415 L24.44,29.8215 C23.83,30.0905 23.15,30.0815 22.58,29.8315 Z M24.02,28.8005 L23.51,28.1115 L22.2,29.9215 L22.33,29.9915 C22.7,30.1815 23.09,30.2715 23.51,30.2715 C23.91,30.2715 24.31,30.1715 24.69,29.9915 L24.82,29.9215 L24.02,28.8005 Z M23.51,27.2815 C23.3,27.2815 23.14,27.4515 23.14,27.6615 C23.14,27.8515 23.31,28.0215 23.51,28.0215 C23.71,28.0215 23.88,27.8515 23.88,27.6615 C23.88,27.4515 23.72,27.2815 23.51,27.2815 Z M22.99,26.9215 L21.49,26.4315 C21.83,25.8715 22.38,25.4815 22.99,25.3515 L22.99,26.9215 Z M23.09,25.0815 C22.3,25.1915 21.59,25.7015 21.19,26.4415 L21.12,26.5715 L22.42,26.9915 L22.89,27.1515 L23.24,27.2605 L23.24,25.0615 L23.09,25.0815 Z M21.73,29.2015 C21.35,28.7715 21.14,28.2315 21.14,27.6615 C21.14,27.5815 21.15,27.5015 21.16,27.4315 L22.18,27.7605 L22.67,27.9215 L21.73,29.2015 Z M20.96,27.1015 L20.93,27.2415 C20.91,27.3715 20.89,27.5105 20.89,27.6615 C20.89,28.3515 21.16,29.0015 21.66,29.4915 L21.76,29.5905 L22.56,28.4815 L22.85,28.0905 L23.06,27.7815 L20.96,27.1015 Z M21.73,29.2015 C21.35,28.7715 21.14,28.2315 21.14,27.6615 C21.14,27.5815 21.15,27.5015 21.16,27.4315 L22.18,27.7605 L22.67,27.9215 L21.73,29.2015 Z M20.96,27.1015 L20.93,27.2415 C20.91,27.3715 20.89,27.5105 20.89,27.6615 C20.89,28.3515 21.16,29.0015 21.66,29.4915 L21.76,29.5905 L22.56,28.4815 L22.85,28.0905 L23.06,27.7815 L20.96,27.1015 Z M22.99,26.9215 L21.49,26.4315 C21.83,25.8715 22.38,25.4815 22.99,25.3515 L22.99,26.9215 Z M23.09,25.0815 C22.3,25.1915 21.59,25.7015 21.19,26.4415 L21.12,26.5715 L22.42,26.9915 L22.89,27.1515 L23.24,27.2605 L23.24,25.0615 L23.09,25.0815 Z M23.51,27.2815 C23.3,27.2815 23.14,27.4515 23.14,27.6615 C23.14,27.8515 23.31,28.0215 23.51,28.0215 C23.71,28.0215 23.88,27.8515 23.88,27.6615 C23.88,27.4515 23.72,27.2815 23.51,27.2815 Z M22.58,29.8315 L23.51,28.5415 L24.44,29.8215 C23.83,30.0905 23.15,30.0815 22.58,29.8315 Z M24.02,28.8005 L23.51,28.1115 L22.2,29.9215 L22.33,29.9915 C22.7,30.1815 23.09,30.2715 23.51,30.2715 C23.91,30.2715 24.31,30.1715 24.69,29.9915 L24.82,29.9215 L24.02,28.8005 Z M24.04,26.9215 L24.04,25.3515 C24.66,25.4915 25.2,25.8815 25.53,26.4315 L24.04,26.9215 Z M25.83,26.4415 C25.45,25.7215 24.74,25.2115 23.94,25.0815 L23.79,25.0505 L23.79,27.2605 L25.9,26.5715 L25.83,26.4415 Z M25.3,29.2015 L24.38,27.9515 L24.36,27.9215 L25.86,27.4415 C25.87,27.5105 25.87,27.5815 25.87,27.6615 C25.87,28.2415 25.68,28.7715 25.3,29.2015 Z M26.09,27.2515 L26.06,27.1115 L23.97,27.7815 L25.27,29.5905 L25.38,29.4915 C25.86,28.9915 26.12,28.3405 26.12,27.6615 C26.12,27.5215 26.11,27.3815 26.09,27.2515 Z M25.3,29.2015 L24.38,27.9515 L24.36,27.9215 L25.86,27.4415 C25.87,27.5105 25.87,27.5815 25.87,27.6615 C25.87,28.2415 25.68,28.7715 25.3,29.2015 Z M26.09,27.2515 L26.06,27.1115 L23.97,27.7815 L25.27,29.5905 L25.38,29.4915 C25.86,28.9915 26.12,28.3405 26.12,27.6615 C26.12,27.5215 26.11,27.3815 26.09,27.2515 Z M24.04,26.9215 L24.04,25.3515 C24.66,25.4915 25.2,25.8815 25.53,26.4315 L24.04,26.9215 Z M25.83,26.4415 C25.45,25.7215 24.74,25.2115 23.94,25.0815 L23.79,25.0505 L23.79,27.2605 L25.9,26.5715 L25.83,26.4415 Z M22.58,29.8315 L23.51,28.5415 L24.44,29.8215 C23.83,30.0905 23.15,30.0815 22.58,29.8315 Z M24.02,28.8005 L23.51,28.1115 L22.2,29.9215 L22.33,29.9915 C22.7,30.1815 23.09,30.2715 23.51,30.2715 C23.91,30.2715 24.31,30.1715 24.69,29.9915 L24.82,29.9215 L24.02,28.8005 Z M23.51,27.2815 C23.3,27.2815 23.14,27.4515 23.14,27.6615 C23.14,27.8515 23.31,28.0215 23.51,28.0215 C23.71,28.0215 23.88,27.8515 23.88,27.6615 C23.88,27.4515 23.72,27.2815 23.51,27.2815 Z M22.99,26.9215 L21.49,26.4315 C21.83,25.8715 22.38,25.4815 22.99,25.3515 L22.99,26.9215 Z M23.09,25.0815 C22.3,25.1915 21.59,25.7015 21.19,26.4415 L21.12,26.5715 L22.42,26.9915 L22.89,27.1515 L23.24,27.2605 L23.24,25.0615 L23.09,25.0815 Z M21.73,29.2015 C21.35,28.7715 21.14,28.2315 21.14,27.6615 C21.14,27.5815 21.15,27.5015 21.16,27.4315 L22.18,27.7605 L22.67,27.9215 L21.73,29.2015 Z M20.96,27.1015 L20.93,27.2415 C20.91,27.3715 20.89,27.5105 20.89,27.6615 C20.89,28.3515 21.16,29.0015 21.66,29.4915 L21.76,29.5905 L22.56,28.4815 L22.85,28.0905 L23.06,27.7815 L20.96,27.1015 Z M21.73,29.2015 C21.35,28.7715 21.14,28.2315 21.14,27.6615 C21.14,27.5815 21.15,27.5015 21.16,27.4315 L22.18,27.7605 L22.67,27.9215 L21.73,29.2015 Z M20.96,27.1015 L20.93,27.2415 C20.91,27.3715 20.89,27.5105 20.89,27.6615 C20.89,28.3515 21.16,29.0015 21.66,29.4915 L21.76,29.5905 L22.56,28.4815 L22.85,28.0905 L23.06,27.7815 L20.96,27.1015 Z M22.99,26.9215 L21.49,26.4315 C21.83,25.8715 22.38,25.4815 22.99,25.3515 L22.99,26.9215 Z M23.09,25.0815 C22.3,25.1915 21.59,25.7015 21.19,26.4415 L21.12,26.5715 L22.42,26.9915 L22.89,27.1515 L23.24,27.2605 L23.24,25.0615 L23.09,25.0815 Z M23.51,27.2815 C23.3,27.2815 23.14,27.4515 23.14,27.6615 C23.14,27.8515 23.31,28.0215 23.51,28.0215 C23.71,28.0215 23.88,27.8515 23.88,27.6615 C23.88,27.4515 23.72,27.2815 23.51,27.2815 Z M22.58,29.8315 L23.51,28.5415 L24.44,29.8215 C23.83,30.0905 23.15,30.0815 22.58,29.8315 Z M24.02,28.8005 L23.51,28.1115 L22.2,29.9215 L22.33,29.9915 C22.7,30.1815 23.09,30.2715 23.51,30.2715 C23.91,30.2715 24.31,30.1715 24.69,29.9915 L24.82,29.9215 L24.02,28.8005 Z M24.04,26.9215 L24.04,25.3515 C24.66,25.4915 25.2,25.8815 25.53,26.4315 L24.04,26.9215 Z M25.83,26.4415 C25.45,25.7215 24.74,25.2115 23.94,25.0815 L23.79,25.0505 L23.79,27.2605 L25.9,26.5715 L25.83,26.4415 Z M25.3,29.2015 L24.38,27.9515 L24.36,27.9215 L25.86,27.4415 C25.87,27.5105 25.87,27.5815 25.87,27.6615 C25.87,28.2415 25.68,28.7715 25.3,29.2015 Z M26.09,27.2515 L26.06,27.1115 L23.97,27.7815 L25.27,29.5905 L25.38,29.4915 C25.86,28.9915 26.12,28.3405 26.12,27.6615 C26.12,27.5215 26.11,27.3815 26.09,27.2515 Z M25.3,29.2015 L24.38,27.9515 L24.36,27.9215 L25.86,27.4415 C25.87,27.5105 25.87,27.5815 25.87,27.6615 C25.87,28.2415 25.68,28.7715 25.3,29.2015 Z M26.09,27.2515 L26.06,27.1115 L23.97,27.7815 L25.27,29.5905 L25.38,29.4915 C25.86,28.9915 26.12,28.3405 26.12,27.6615 C26.12,27.5215 26.11,27.3815 26.09,27.2515 Z M24.04,26.9215 L24.04,25.3515 C24.66,25.4915 25.2,25.8815 25.53,26.4315 L24.04,26.9215 Z M25.83,26.4415 C25.45,25.7215 24.74,25.2115 23.94,25.0815 L23.79,25.0505 L23.79,27.2605 L25.9,26.5715 L25.83,26.4415 Z M22.58,29.8315 L23.51,28.5415 L24.44,29.8215 C23.83,30.0905 23.15,30.0815 22.58,29.8315 Z M24.02,28.8005 L23.51,28.1115 L22.2,29.9215 L22.33,29.9915 C22.7,30.1815 23.09,30.2715 23.51,30.2715 C23.91,30.2715 24.31,30.1715 24.69,29.9915 L24.82,29.9215 L24.02,28.8005 Z M23.51,27.2815 C23.3,27.2815 23.14,27.4515 23.14,27.6615 C23.14,27.8515 23.31,28.0215 23.51,28.0215 C23.71,28.0215 23.88,27.8515 23.88,27.6615 C23.88,27.4515 23.72,27.2815 23.51,27.2815 Z M22.99,26.9215 L21.49,26.4315 C21.83,25.8715 22.38,25.4815 22.99,25.3515 L22.99,26.9215 Z M23.09,25.0815 C22.3,25.1915 21.59,25.7015 21.19,26.4415 L21.12,26.5715 L22.42,26.9915 L22.89,27.1515 L23.24,27.2605 L23.24,25.0615 L23.09,25.0815 Z M21.73,29.2015 C21.35,28.7715 21.14,28.2315 21.14,27.6615 C21.14,27.5815 21.15,27.5015 21.16,27.4315 L22.18,27.7605 L22.67,27.9215 L21.73,29.2015 Z M20.96,27.1015 L20.93,27.2415 C20.91,27.3715 20.89,27.5105 20.89,27.6615 C20.89,28.3515 21.16,29.0015 21.66,29.4915 L21.76,29.5905 L22.56,28.4815 L22.85,28.0905 L23.06,27.7815 L20.96,27.1015 Z M21.73,29.2015 C21.35,28.7715 21.14,28.2315 21.14,27.6615 C21.14,27.5815 21.15,27.5015 21.16,27.4315 L22.18,27.7605 L22.67,27.9215 L21.73,29.2015 Z M20.96,27.1015 L20.93,27.2415 C20.91,27.3715 20.89,27.5105 20.89,27.6615 C20.89,28.3515 21.16,29.0015 21.66,29.4915 L21.76,29.5905 L22.56,28.4815 L22.85,28.0905 L23.06,27.7815 L20.96,27.1015 Z M22.99,26.9215 L21.49,26.4315 C21.83,25.8715 22.38,25.4815 22.99,25.3515 L22.99,26.9215 Z M23.09,25.0815 C22.3,25.1915 21.59,25.7015 21.19,26.4415 L21.12,26.5715 L22.42,26.9915 L22.89,27.1515 L23.24,27.2605 L23.24,25.0615 L23.09,25.0815 Z M23.51,27.2815 C23.3,27.2815 23.14,27.4515 23.14,27.6615 C23.14,27.8515 23.31,28.0215 23.51,28.0215 C23.71,28.0215 23.88,27.8515 23.88,27.6615 C23.88,27.4515 23.72,27.2815 23.51,27.2815 Z M22.58,29.8315 L23.51,28.5415 L24.44,29.8215 C23.83,30.0905 23.15,30.0815 22.58,29.8315 Z M24.02,28.8005 L23.51,28.1115 L22.2,29.9215 L22.33,29.9915 C22.7,30.1815 23.09,30.2715 23.51,30.2715 C23.91,30.2715 24.31,30.1715 24.69,29.9915 L24.82,29.9215 L24.02,28.8005 Z M24.04,26.9215 L24.04,25.3515 C24.66,25.4915 25.2,25.8815 25.53,26.4315 L24.04,26.9215 Z M25.83,26.4415 C25.45,25.7215 24.74,25.2115 23.94,25.0815 L23.79,25.0505 L23.79,27.2605 L25.9,26.5715 L25.83,26.4415 Z M25.3,29.2015 L24.38,27.9515 L24.36,27.9215 L25.86,27.4415 C25.87,27.5105 25.87,27.5815 25.87,27.6615 C25.87,28.2415 25.68,28.7715 25.3,29.2015 Z M26.09,27.2515 L26.06,27.1115 L23.97,27.7815 L25.27,29.5905 L25.38,29.4915 C25.86,28.9915 26.12,28.3405 26.12,27.6615 C26.12,27.5215 26.11,27.3815 26.09,27.2515 Z M25.3,29.2015 L24.38,27.9515 L24.36,27.9215 L25.86,27.4415 C25.87,27.5105 25.87,27.5815 25.87,27.6615 C25.87,28.2415 25.68,28.7715 25.3,29.2015 Z M26.09,27.2515 L26.06,27.1115 L23.97,27.7815 L25.27,29.5905 L25.38,29.4915 C25.86,28.9915 26.12,28.3405 26.12,27.6615 C26.12,27.5215 26.11,27.3815 26.09,27.2515 Z M24.04,26.9215 L24.04,25.3515 C24.66,25.4915 25.2,25.8815 25.53,26.4315 L24.04,26.9215 Z M25.83,26.4415 C25.45,25.7215 24.74,25.2115 23.94,25.0815 L23.79,25.0505 L23.79,27.2605 L25.9,26.5715 L25.83,26.4415 Z M22.58,29.8315 L23.51,28.5415 L24.44,29.8215 C23.83,30.0905 23.15,30.0815 22.58,29.8315 Z M24.02,28.8005 L23.51,28.1115 L22.2,29.9215 L22.33,29.9915 C22.7,30.1815 23.09,30.2715 23.51,30.2715 C23.91,30.2715 24.31,30.1715 24.69,29.9915 L24.82,29.9215 L24.02,28.8005 Z M23.51,27.2815 C23.3,27.2815 23.14,27.4515 23.14,27.6615 C23.14,27.8515 23.31,28.0215 23.51,28.0215 C23.71,28.0215 23.88,27.8515 23.88,27.6615 C23.88,27.4515 23.72,27.2815 23.51,27.2815 Z M22.99,26.9215 L21.49,26.4315 C21.83,25.8715 22.38,25.4815 22.99,25.3515 L22.99,26.9215 Z M23.09,25.0815 C22.3,25.1915 21.59,25.7015 21.19,26.4415 L21.12,26.5715 L22.42,26.9915 L22.89,27.1515 L23.24,27.2605 L23.24,25.0615 L23.09,25.0815 Z M21.73,29.2015 C21.35,28.7715 21.14,28.2315 21.14,27.6615 C21.14,27.5815 21.15,27.5015 21.16,27.4315 L22.18,27.7605 L22.67,27.9215 L21.73,29.2015 Z M20.96,27.1015 L20.93,27.2415 C20.91,27.3715 20.89,27.5105 20.89,27.6615 C20.89,28.3515 21.16,29.0015 21.66,29.4915 L21.76,29.5905 L22.56,28.4815 L22.85,28.0905 L23.06,27.7815 L20.96,27.1015 Z M21.73,29.2015 C21.35,28.7715 21.14,28.2315 21.14,27.6615 C21.14,27.5815 21.15,27.5015 21.16,27.4315 L22.18,27.7605 L22.67,27.9215 L21.73,29.2015 Z M20.96,27.1015 L20.93,27.2415 C20.91,27.3715 20.89,27.5105 20.89,27.6615 C20.89,28.3515 21.16,29.0015 21.66,29.4915 L21.76,29.5905 L22.56,28.4815 L22.85,28.0905 L23.06,27.7815 L20.96,27.1015 Z M22.99,26.9215 L21.49,26.4315 C21.83,25.8715 22.38,25.4815 22.99,25.3515 L22.99,26.9215 Z M23.09,25.0815 C22.3,25.1915 21.59,25.7015 21.19,26.4415 L21.12,26.5715 L22.42,26.9915 L22.89,27.1515 L23.24,27.2605 L23.24,25.0615 L23.09,25.0815 Z M23.51,27.2815 C23.3,27.2815 23.14,27.4515 23.14,27.6615 C23.14,27.8515 23.31,28.0215 23.51,28.0215 C23.71,28.0215 23.88,27.8515 23.88,27.6615 C23.88,27.4515 23.72,27.2815 23.51,27.2815 Z M22.58,29.8315 L23.51,28.5415 L24.44,29.8215 C23.83,30.0905 23.15,30.0815 22.58,29.8315 Z M24.02,28.8005 L23.51,28.1115 L22.2,29.9215 L22.33,29.9915 C22.7,30.1815 23.09,30.2715 23.51,30.2715 C23.91,30.2715 24.31,30.1715 24.69,29.9915 L24.82,29.9215 L24.02,28.8005 Z M24.04,26.9215 L24.04,25.3515 C24.66,25.4915 25.2,25.8815 25.53,26.4315 L24.04,26.9215 Z M25.83,26.4415 C25.45,25.7215 24.74,25.2115 23.94,25.0815 L23.79,25.0505 L23.79,27.2605 L25.9,26.5715 L25.83,26.4415 Z M25.3,29.2015 L24.38,27.9515 L24.36,27.9215 L25.86,27.4415 C25.87,27.5105 25.87,27.5815 25.87,27.6615 C25.87,28.2415 25.68,28.7715 25.3,29.2015 Z M26.09,27.2515 L26.06,27.1115 L23.97,27.7815 L25.27,29.5905 L25.38,29.4915 C25.86,28.9915 26.12,28.3405 26.12,27.6615 C26.12,27.5215 26.11,27.3815 26.09,27.2515 Z M21.73,29.2015 C21.35,28.7715 21.14,28.2315 21.14,27.6615 C21.14,27.5815 21.15,27.5015 21.16,27.4315 L22.18,27.7605 L22.67,27.9215 L21.73,29.2015 Z M20.96,27.1015 L20.93,27.2415 C20.91,27.3715 20.89,27.5105 20.89,27.6615 C20.89,28.3515 21.16,29.0015 21.66,29.4915 L21.76,29.5905 L22.56,28.4815 L22.85,28.0905 L23.06,27.7815 L20.96,27.1015 Z M22.99,26.9215 L21.49,26.4315 C21.83,25.8715 22.38,25.4815 22.99,25.3515 L22.99,26.9215 Z M23.09,25.0815 C22.3,25.1915 21.59,25.7015 21.19,26.4415 L21.12,26.5715 L22.42,26.9915 L22.89,27.1515 L23.24,27.2605 L23.24,25.0615 L23.09,25.0815 Z M23.51,27.2815 C23.3,27.2815 23.14,27.4515 23.14,27.6615 C23.14,27.8515 23.31,28.0215 23.51,28.0215 C23.71,28.0215 23.88,27.8515 23.88,27.6615 C23.88,27.4515 23.72,27.2815 23.51,27.2815 Z M22.58,29.8315 L23.51,28.5415 L24.44,29.8215 C23.83,30.0905 23.15,30.0815 22.58,29.8315 Z M24.02,28.8005 L23.51,28.1115 L22.2,29.9215 L22.33,29.9915 C22.7,30.1815 23.09,30.2715 23.51,30.2715 C23.91,30.2715 24.31,30.1715 24.69,29.9915 L24.82,29.9215 L24.02,28.8005 Z M24.04,26.9215 L24.04,25.3515 C24.66,25.4915 25.2,25.8815 25.53,26.4315 L24.04,26.9215 Z M25.83,26.4415 C25.45,25.7215 24.74,25.2115 23.94,25.0815 L23.79,25.0505 L23.79,27.2605 L25.9,26.5715 L25.83,26.4415 Z M25.3,29.2015 L24.38,27.9515 L24.36,27.9215 L25.86,27.4415 C25.87,27.5105 25.87,27.5815 25.87,27.6615 C25.87,28.2415 25.68,28.7715 25.3,29.2015 Z M26.09,27.2515 L26.06,27.1115 L23.97,27.7815 L25.27,29.5905 L25.38,29.4915 C25.86,28.9915 26.12,28.3405 26.12,27.6615 C26.12,27.5215 26.11,27.3815 26.09,27.2515 Z M21.73,29.2015 C21.35,28.7715 21.14,28.2315 21.14,27.6615 C21.14,27.5815 21.15,27.5015 21.16,27.4315 L22.18,27.7605 L22.67,27.9215 L21.73,29.2015 Z M20.96,27.1015 L20.93,27.2415 C20.91,27.3715 20.89,27.5105 20.89,27.6615 C20.89,28.3515 21.16,29.0015 21.66,29.4915 L21.76,29.5905 L22.56,28.4815 L22.85,28.0905 L23.06,27.7815 L20.96,27.1015 Z M22.99,26.9215 L21.49,26.4315 C21.83,25.8715 22.38,25.4815 22.99,25.3515 L22.99,26.9215 Z M23.09,25.0815 C22.3,25.1915 21.59,25.7015 21.19,26.4415 L21.12,26.5715 L22.42,26.9915 L22.89,27.1515 L23.24,27.2605 L23.24,25.0615 L23.09,25.0815 Z M23.51,27.2815 C23.3,27.2815 23.14,27.4515 23.14,27.6615 C23.14,27.8515 23.31,28.0215 23.51,28.0215 C23.71,28.0215 23.88,27.8515 23.88,27.6615 C23.88,27.4515 23.72,27.2815 23.51,27.2815 Z M22.58,29.8315 L23.51,28.5415 L24.44,29.8215 C23.83,30.0905 23.15,30.0815 22.58,29.8315 Z M24.02,28.8005 L23.51,28.1115 L22.2,29.9215 L22.33,29.9915 C22.7,30.1815 23.09,30.2715 23.51,30.2715 C23.91,30.2715 24.31,30.1715 24.69,29.9915 L24.82,29.9215 L24.02,28.8005 Z M24.04,26.9215 L24.04,25.3515 C24.66,25.4915 25.2,25.8815 25.53,26.4315 L24.04,26.9215 Z M25.83,26.4415 C25.45,25.7215 24.74,25.2115 23.94,25.0815 L23.79,25.0505 L23.79,27.2605 L25.9,26.5715 L25.83,26.4415 Z M25.3,29.2015 L24.38,27.9515 L24.36,27.9215 L25.86,27.4415 C25.87,27.5105 25.87,27.5815 25.87,27.6615 C25.87,28.2415 25.68,28.7715 25.3,29.2015 Z M26.09,27.2515 L26.06,27.1115 L23.97,27.7815 L25.27,29.5905 L25.38,29.4915 C25.86,28.9915 26.12,28.3405 26.12,27.6615 C26.12,27.5215 26.11,27.3815 26.09,27.2515 Z M21.73,29.2015 C21.35,28.7715 21.14,28.2315 21.14,27.6615 C21.14,27.5815 21.15,27.5015 21.16,27.4315 L22.18,27.7605 L22.67,27.9215 L21.73,29.2015 Z M23.06,27.7815 L20.96,27.1015 L20.93,27.2415 C20.91,27.3715 20.89,27.5105 20.89,27.6615 C20.89,28.3515 21.16,29.0015 21.66,29.4915 L21.76,29.5905 L22.56,28.4815 L22.85,28.0905 L23.06,27.7815 Z M22.99,25.3515 L22.99,26.9215 L21.49,26.4315 C21.83,25.8715 22.38,25.4815 22.99,25.3515 Z M21.19,26.4415 L21.12,26.5715 L22.42,26.9915 L22.89,27.1515 L23.24,27.2605 L23.24,25.0615 L23.09,25.0815 C22.3,25.1915 21.59,25.7015 21.19,26.4415 Z M23.51,28.0215 C23.71,28.0215 23.88,27.8515 23.88,27.6615 C23.88,27.4515 23.72,27.2815 23.51,27.2815 C23.3,27.2815 23.14,27.4515 23.14,27.6615 C23.14,27.8515 23.31,28.0215 23.51,28.0215 Z M23.51,28.5415 L24.44,29.8215 C23.83,30.0905 23.15,30.0815 22.58,29.8315 L23.51,28.5415 Z M23.51,30.2715 C23.91,30.2715 24.31,30.1715 24.69,29.9915 L24.82,29.9215 L24.02,28.8005 L23.51,28.1115 L22.2,29.9215 L22.33,29.9915 C22.7,30.1815 23.09,30.2715 23.51,30.2715 Z M24.04,26.9215 L24.04,25.3515 C24.66,25.4915 25.2,25.8815 25.53,26.4315 L24.04,26.9215 Z M25.83,26.4415 C25.45,25.7215 24.74,25.2115 23.94,25.0815 L23.79,25.0505 L23.79,27.2605 L25.9,26.5715 L25.83,26.4415 Z M24.36,27.9215 L25.86,27.4415 C25.87,27.5105 25.87,27.5815 25.87,27.6615 C25.87,28.2415 25.68,28.7715 25.3,29.2015 L24.38,27.9515 L24.36,27.9215 Z M25.38,29.4915 C25.86,28.9915 26.12,28.3405 26.12,27.6615 C26.12,27.5215 26.11,27.3815 26.09,27.2515 L26.06,27.1115 L23.97,27.7815 L25.27,29.5905 L25.38,29.4915 Z M24.94,24.4415 L24.91,24.7115 C26.01,25.2315 26.78,26.3515 26.78,27.6615 C26.78,29.4515 25.31,30.9215 23.51,30.9215 C21.71,30.9215 20.25,29.4515 20.25,27.6615 C20.25,26.0905 21.35,24.7815 22.81,24.4715 L22.74,24.2315 C21.17,24.5815 20,25.9815 20,27.6615 C20,29.5905 21.57,31.1715 23.51,31.1715 C25.45,31.1715 27.03,29.5905 27.03,27.6615 C27.03,26.2215 26.17,24.9915 24.94,24.4415 Z M25.3,29.2015 L24.38,27.9515 L24.36,27.9215 L25.86,27.4415 C25.87,27.5105 25.87,27.5815 25.87,27.6615 C25.87,28.2415 25.68,28.7715 25.3,29.2015 Z M26.09,27.2515 L26.06,27.1115 L23.97,27.7815 L25.27,29.5905 L25.38,29.4915 C25.86,28.9915 26.12,28.3405 26.12,27.6615 C26.12,27.5215 26.11,27.3815 26.09,27.2515 Z M24.04,26.9215 L24.04,25.3515 C24.66,25.4915 25.2,25.8815 25.53,26.4315 L24.04,26.9215 Z M25.83,26.4415 C25.45,25.7215 24.74,25.2115 23.94,25.0815 L23.79,25.0505 L23.79,27.2605 L25.9,26.5715 L25.83,26.4415 Z M22.58,29.8315 L23.51,28.5415 L24.44,29.8215 C23.83,30.0905 23.15,30.0815 22.58,29.8315 Z M24.02,28.8005 L23.51,28.1115 L22.2,29.9215 L22.33,29.9915 C22.7,30.1815 23.09,30.2715 23.51,30.2715 C23.91,30.2715 24.31,30.1715 24.69,29.9915 L24.82,29.9215 L24.02,28.8005 Z M23.51,27.2815 C23.3,27.2815 23.14,27.4515 23.14,27.6615 C23.14,27.8515 23.31,28.0215 23.51,28.0215 C23.71,28.0215 23.88,27.8515 23.88,27.6615 C23.88,27.4515 23.72,27.2815 23.51,27.2815 Z M22.99,26.9215 L21.49,26.4315 C21.83,25.8715 22.38,25.4815 22.99,25.3515 L22.99,26.9215 Z M23.09,25.0815 C22.3,25.1915 21.59,25.7015 21.19,26.4415 L21.12,26.5715 L22.42,26.9915 L22.89,27.1515 L23.24,27.2605 L23.24,25.0615 L23.09,25.0815 Z M21.73,29.2015 C21.35,28.7715 21.14,28.2315 21.14,27.6615 C21.14,27.5815 21.15,27.5015 21.16,27.4315 L22.18,27.7605 L22.67,27.9215 L21.73,29.2015 Z M20.96,27.1015 L20.93,27.2415 C20.91,27.3715 20.89,27.5105 20.89,27.6615 C20.89,28.3515 21.16,29.0015 21.66,29.4915 L21.76,29.5905 L22.56,28.4815 L22.85,28.0905 L23.06,27.7815 L20.96,27.1015 Z M25.3,29.2015 L24.38,27.9515 L24.36,27.9215 L25.86,27.4415 C25.87,27.5105 25.87,27.5815 25.87,27.6615 C25.87,28.2415 25.68,28.7715 25.3,29.2015 Z M26.09,27.2515 L26.06,27.1115 L23.97,27.7815 L25.27,29.5905 L25.38,29.4915 C25.86,28.9915 26.12,28.3405 26.12,27.6615 C26.12,27.5215 26.11,27.3815 26.09,27.2515 Z M24.04,26.9215 L24.04,25.3515 C24.66,25.4915 25.2,25.8815 25.53,26.4315 L24.04,26.9215 Z M25.83,26.4415 C25.45,25.7215 24.74,25.2115 23.94,25.0815 L23.79,25.0505 L23.79,27.2605 L25.9,26.5715 L25.83,26.4415 Z M22.58,29.8315 L23.51,28.5415 L24.44,29.8215 C23.83,30.0905 23.15,30.0815 22.58,29.8315 Z M24.02,28.8005 L23.51,28.1115 L22.2,29.9215 L22.33,29.9915 C22.7,30.1815 23.09,30.2715 23.51,30.2715 C23.91,30.2715 24.31,30.1715 24.69,29.9915 L24.82,29.9215 L24.02,28.8005 Z M23.51,27.2815 C23.3,27.2815 23.14,27.4515 23.14,27.6615 C23.14,27.8515 23.31,28.0215 23.51,28.0215 C23.71,28.0215 23.88,27.8515 23.88,27.6615 C23.88,27.4515 23.72,27.2815 23.51,27.2815 Z M22.99,26.9215 L21.49,26.4315 C21.83,25.8715 22.38,25.4815 22.99,25.3515 L22.99,26.9215 Z M23.09,25.0815 C22.3,25.1915 21.59,25.7015 21.19,26.4415 L21.12,26.5715 L22.42,26.9915 L22.89,27.1515 L23.24,27.2605 L23.24,25.0615 L23.09,25.0815 Z M21.73,29.2015 C21.35,28.7715 21.14,28.2315 21.14,27.6615 C21.14,27.5815 21.15,27.5015 21.16,27.4315 L22.18,27.7605 L22.67,27.9215 L21.73,29.2015 Z M20.96,27.1015 L20.93,27.2415 C20.91,27.3715 20.89,27.5105 20.89,27.6615 C20.89,28.3515 21.16,29.0015 21.66,29.4915 L21.76,29.5905 L22.56,28.4815 L22.85,28.0905 L23.06,27.7815 L20.96,27.1015 Z M25.3,29.2015 L24.38,27.9515 L24.36,27.9215 L25.86,27.4415 C25.87,27.5105 25.87,27.5815 25.87,27.6615 C25.87,28.2415 25.68,28.7715 25.3,29.2015 Z M26.09,27.2515 L26.06,27.1115 L23.97,27.7815 L25.27,29.5905 L25.38,29.4915 C25.86,28.9915 26.12,28.3405 26.12,27.6615 C26.12,27.5215 26.11,27.3815 26.09,27.2515 Z M24.04,26.9215 L24.04,25.3515 C24.66,25.4915 25.2,25.8815 25.53,26.4315 L24.04,26.9215 Z M25.83,26.4415 C25.45,25.7215 24.74,25.2115 23.94,25.0815 L23.79,25.0505 L23.79,27.2605 L25.9,26.5715 L25.83,26.4415 Z M22.58,29.8315 L23.51,28.5415 L24.44,29.8215 C23.83,30.0905 23.15,30.0815 22.58,29.8315 Z M24.02,28.8005 L23.51,28.1115 L22.2,29.9215 L22.33,29.9915 C22.7,30.1815 23.09,30.2715 23.51,30.2715 C23.91,30.2715 24.31,30.1715 24.69,29.9915 L24.82,29.9215 L24.02,28.8005 Z M23.51,27.2815 C23.3,27.2815 23.14,27.4515 23.14,27.6615 C23.14,27.8515 23.31,28.0215 23.51,28.0215 C23.71,28.0215 23.88,27.8515 23.88,27.6615 C23.88,27.4515 23.72,27.2815 23.51,27.2815 Z M22.99,26.9215 L21.49,26.4315 C21.83,25.8715 22.38,25.4815 22.99,25.3515 L22.99,26.9215 Z M23.09,25.0815 C22.3,25.1915 21.59,25.7015 21.19,26.4415 L21.12,26.5715 L22.42,26.9915 L22.89,27.1515 L23.24,27.2605 L23.24,25.0615 L23.09,25.0815 Z M21.73,29.2015 C21.35,28.7715 21.14,28.2315 21.14,27.6615 C21.14,27.5815 21.15,27.5015 21.16,27.4315 L22.18,27.7605 L22.67,27.9215 L21.73,29.2015 Z M20.96,27.1015 L20.93,27.2415 C20.91,27.3715 20.89,27.5105 20.89,27.6615 C20.89,28.3515 21.16,29.0015 21.66,29.4915 L21.76,29.5905 L22.56,28.4815 L22.85,28.0905 L23.06,27.7815 L20.96,27.1015 Z" id="Fill-48"></path>
                <path d="M21.262,27.5615 C21.254,27.6355 21.25,27.7125 21.25,27.7925 C21.25,28.3665 21.457,28.9105 21.836,29.3395 L22.774,28.0545 L22.288,27.9005 L21.262,27.5615 Z M21.865,29.7275 L21.761,29.6245 C21.27,29.1335 21,28.4825 21,27.7925 C21,27.6435 21.013,27.5025 21.036,27.3735 L21.062,27.2315 L23.167,27.9155 L22.961,28.2245 L22.662,28.6155 L21.865,29.7275 Z" id="Fill-49"></path>
                <path d="M21.368,25.6055 L22.868,26.0995 L22.868,24.5255 C22.26,24.6575 21.714,25.0505 21.368,25.6055 Z M23.118,26.4335 L22.766,26.3305 L22.296,26.1695 L21,25.7495 L21.072,25.6175 C21.473,24.8785 22.185,24.3675 22.975,24.2525 L23.118,24.2315 L23.118,26.4335 Z" id="Fill-50"></path>
                <path d="M22.375,29.9475 C22.949,30.1995 23.624,30.2085 24.238,29.9455 L23.308,28.6575 L22.375,29.9475 Z M23.306,30.3915 C22.891,30.3915 22.495,30.2955 22.128,30.1065 L22,30.0395 L23.305,28.2315 L23.815,28.9245 L24.614,30.0415 L24.483,30.1065 C24.111,30.2925 23.704,30.3915 23.306,30.3915 Z" id="Fill-51"></path>
                <path d="M24.25,24.5295 L24.25,26.0995 L25.741,25.6075 C25.409,25.0615 24.867,24.6705 24.25,24.5295 Z M24,26.4385 L24,24.2315 L24.145,24.2555 C24.948,24.3845 25.654,24.8945 26.036,25.6215 L26.104,25.7525 L24,26.4385 Z" id="Fill-52"></path>
                <path d="M24.394,28.0415 L24.414,28.0725 L25.329,29.3255 C25.707,28.8905 25.906,28.3595 25.906,27.7795 C25.906,27.7045 25.902,27.6315 25.894,27.5595 L24.394,28.0415 Z M25.304,29.7155 L24,27.9025 L26.094,27.2315 L26.12,27.3725 C26.144,27.5065 26.156,27.6395 26.156,27.7795 C26.156,28.4655 25.89,29.1155 25.407,29.6095 L25.304,29.7155 Z" id="Fill-53"></path>
                <path d="M21.262,27.5615 C21.254,27.6355 21.25,27.7125 21.25,27.7925 C21.25,28.3665 21.457,28.9105 21.836,29.3395 L22.774,28.0545 L22.288,27.9005 L21.262,27.5615 Z M21.865,29.7275 L21.761,29.6245 C21.27,29.1335 21,28.4825 21,27.7925 C21,27.6435 21.013,27.5025 21.036,27.3735 L21.062,27.2315 L23.167,27.9155 L22.961,28.2245 L22.662,28.6155 L21.865,29.7275 Z" id="Fill-54"></path>
                <path d="M21.368,25.6055 L22.868,26.0995 L22.868,24.5255 C22.26,24.6575 21.714,25.0505 21.368,25.6055 Z M23.118,26.4335 L22.766,26.3305 L22.296,26.1695 L21,25.7495 L21.072,25.6175 C21.473,24.8785 22.185,24.3675 22.975,24.2525 L23.118,24.2315 L23.118,26.4335 Z" id="Fill-55"></path>
                <path d="M22.375,29.9475 C22.949,30.1995 23.624,30.2085 24.238,29.9455 L23.308,28.6575 L22.375,29.9475 Z M23.306,30.3915 C22.891,30.3915 22.495,30.2955 22.128,30.1065 L22,30.0395 L23.305,28.2315 L23.815,28.9245 L24.614,30.0415 L24.483,30.1065 C24.111,30.2925 23.704,30.3915 23.306,30.3915 Z" id="Fill-56"></path>
                <path d="M24.25,24.5295 L24.25,26.0995 L25.741,25.6075 C25.409,25.0615 24.867,24.6705 24.25,24.5295 Z M24,26.4385 L24,24.2315 L24.145,24.2555 C24.948,24.3845 25.654,24.8945 26.036,25.6215 L26.104,25.7525 L24,26.4385 Z" id="Fill-57"></path>
                <path d="M24.394,28.0415 L24.414,28.0725 L25.329,29.3255 C25.707,28.8905 25.906,28.3595 25.906,27.7795 C25.906,27.7045 25.902,27.6315 25.894,27.5595 L24.394,28.0415 Z M25.304,29.7155 L24,27.9025 L26.094,27.2315 L26.12,27.3725 C26.144,27.5065 26.156,27.6395 26.156,27.7795 C26.156,28.4655 25.89,29.1155 25.407,29.6095 L25.304,29.7155 Z" id="Fill-58"></path>
                <path d="M50.488,26.5255 L51.988,27.0195 L51.988,25.4455 C51.379,25.5775 50.834,25.9705 50.488,26.5255 Z M52.238,27.3535 L51.886,27.2505 L51.416,27.0895 L50.121,26.6695 L50.192,26.5375 C50.593,25.7985 51.304,25.2885 52.095,25.1725 L52.238,25.1515 L52.238,27.3535 Z M53.042,25.4475 L53.042,27.0175 L54.533,26.5255 C54.201,25.9795 53.659,25.5885 53.042,25.4475 Z M52.792,27.3565 L52.792,25.1495 L52.937,25.1735 C53.74,25.3025 54.446,25.8125 54.828,26.5395 L54.896,26.6705 L52.792,27.3565 Z M52.509,28.1155 C52.307,28.1155 52.136,27.9495 52.136,27.7525 C52.136,27.5465 52.303,27.3785 52.509,27.3785 C52.716,27.3785 52.884,27.5465 52.884,27.7525 C52.884,27.9495 52.712,28.1155 52.509,28.1155 Z M50.156,27.5215 C50.148,27.5955 50.145,27.6725 50.145,27.7525 C50.145,28.3265 50.352,28.8705 50.73,29.2995 L51.668,28.0145 L51.182,27.8605 L50.156,27.5215 Z M50.759,29.6875 L50.655,29.5845 C50.165,29.0935 49.895,28.4425 49.895,27.7525 C49.895,27.6035 49.907,27.4625 49.93,27.3335 L49.956,27.1915 L52.061,27.8755 L51.855,28.1845 L51.556,28.5755 L50.759,29.6875 Z M53.363,28.0145 L53.383,28.0455 L54.298,29.2985 C54.676,28.8635 54.875,28.3325 54.875,27.7525 C54.875,27.6775 54.871,27.6045 54.863,27.5325 L53.363,28.0145 Z M54.273,29.6885 L52.969,27.8755 L55.063,27.2045 L55.089,27.3455 C55.113,27.4795 55.125,27.6125 55.125,27.7525 C55.125,28.4385 54.859,29.0885 54.376,29.5825 L54.273,29.6885 Z M51.579,29.9235 C52.151,30.1755 52.827,30.1845 53.441,29.9215 L52.511,28.6335 L51.579,29.9235 Z M52.509,30.3675 C52.094,30.3675 51.697,30.2715 51.332,30.0825 L51.203,30.0155 L52.508,28.2075 L53.018,28.9005 L53.817,30.0175 L53.686,30.0825 C53.314,30.2685 52.907,30.3675 52.509,30.3675 Z M52.509,24.4815 C50.712,24.4815 49.25,25.9485 49.25,27.7525 C49.25,29.5505 50.712,31.0125 52.509,31.0125 C54.313,31.0125 55.78,29.5505 55.78,27.7525 C55.78,25.9485 54.313,24.4815 52.509,24.4815 Z M52.509,31.2625 C50.574,31.2625 49,29.6875 49,27.7525 C49,25.8105 50.574,24.2315 52.509,24.2315 C54.451,24.2315 56.03,25.8105 56.03,27.7525 C56.03,29.6875 54.451,31.2625 52.509,31.2625 Z" id="Fill-59"></path>
                <path d="M50.261,27.5615 C50.253,27.6355 50.25,27.7125 50.25,27.7925 C50.25,28.3665 50.457,28.9105 50.835,29.3395 L51.773,28.0545 L51.287,27.9005 L50.261,27.5615 Z M50.864,29.7275 L50.76,29.6245 C50.27,29.1335 50,28.4825 50,27.7925 C50,27.6435 50.012,27.5025 50.035,27.3735 L50.061,27.2315 L52.166,27.9155 L51.96,28.2245 L51.661,28.6155 L50.864,29.7275 Z" id="Fill-60"></path>
                <path d="M50.367,25.6055 L51.867,26.0995 L51.867,24.5255 C51.258,24.6575 50.713,25.0505 50.367,25.6055 Z M52.117,26.4335 L51.765,26.3305 L51.295,26.1695 L50,25.7495 L50.071,25.6175 C50.472,24.8785 51.183,24.3685 51.974,24.2525 L52.117,24.2315 L52.117,26.4335 Z" id="Fill-61"></path>
                <path d="M52.376,29.9475 C52.948,30.1995 53.624,30.2085 54.238,29.9455 L53.308,28.6575 L52.376,29.9475 Z M53.306,30.3915 C52.89,30.3915 52.494,30.2955 52.129,30.1065 L52,30.0395 L53.305,28.2315 L53.815,28.9245 L54.614,30.0415 L54.483,30.1065 C54.111,30.2925 53.704,30.3915 53.306,30.3915 Z" id="Fill-62"></path>
                <path d="M53.25,24.5295 L53.25,26.0995 L54.741,25.6075 C54.409,25.0615 53.867,24.6705 53.25,24.5295 Z M53,26.4385 L53,24.2315 L53.145,24.2555 C53.948,24.3845 54.654,24.8945 55.036,25.6215 L55.104,25.7525 L53,26.4385 Z" id="Fill-63"></path>
                <path d="M53.394,28.0415 L53.414,28.0725 L54.329,29.3255 C54.707,28.8905 54.906,28.3595 54.906,27.7795 C54.906,27.7045 54.902,27.6315 54.894,27.5595 L53.394,28.0415 Z M54.304,29.7155 L53,27.9025 L55.094,27.2315 L55.12,27.3725 C55.144,27.5065 55.156,27.6395 55.156,27.7795 C55.156,28.4655 54.89,29.1155 54.407,29.6095 L54.304,29.7155 Z" id="Fill-64"></path>
                <path d="M50.261,27.5615 C50.253,27.6355 50.25,27.7125 50.25,27.7925 C50.25,28.3665 50.457,28.9105 50.835,29.3395 L51.773,28.0545 L51.287,27.9005 L50.261,27.5615 Z M50.864,29.7275 L50.76,29.6245 C50.27,29.1335 50,28.4825 50,27.7925 C50,27.6435 50.012,27.5025 50.035,27.3735 L50.061,27.2315 L52.166,27.9155 L51.96,28.2245 L51.661,28.6155 L50.864,29.7275 Z" id="Fill-65"></path>
                <path d="M50.367,25.6055 L51.867,26.0995 L51.867,24.5255 C51.258,24.6575 50.713,25.0505 50.367,25.6055 Z M52.117,26.4335 L51.765,26.3305 L51.295,26.1695 L50,25.7495 L50.071,25.6175 C50.472,24.8785 51.183,24.3685 51.974,24.2525 L52.117,24.2315 L52.117,26.4335 Z" id="Fill-66"></path>
                <path d="M52.376,29.9475 C52.948,30.1995 53.624,30.2085 54.238,29.9455 L53.308,28.6575 L52.376,29.9475 Z M53.306,30.3915 C52.89,30.3915 52.494,30.2955 52.129,30.1065 L52,30.0395 L53.305,28.2315 L53.815,28.9245 L54.614,30.0415 L54.483,30.1065 C54.111,30.2925 53.704,30.3915 53.306,30.3915 Z" id="Fill-67"></path>
                <path d="M53.25,24.5295 L53.25,26.0995 L54.741,25.6075 C54.409,25.0615 53.867,24.6705 53.25,24.5295 Z M53,26.4385 L53,24.2315 L53.145,24.2555 C53.948,24.3845 54.654,24.8945 55.036,25.6215 L55.104,25.7525 L53,26.4385 Z" id="Fill-68"></path>
                <path d="M53.394,28.0415 L53.414,28.0725 L54.329,29.3255 C54.707,28.8905 54.906,28.3595 54.906,27.7795 C54.906,27.7045 54.902,27.6315 54.894,27.5595 L53.394,28.0415 Z M54.304,29.7155 L53,27.9025 L55.094,27.2315 L55.12,27.3725 C55.144,27.5065 55.156,27.6395 55.156,27.7795 C55.156,28.4655 54.89,29.1155 54.407,29.6095 L54.304,29.7155 Z" id="Fill-69"></path>
                <path d="M13.32,9.8815 L25.39,9.8815 L25.39,8.8815 L13.32,8.8815 L13.32,9.8815 Z M13.32,13.3815 L24.11,13.3815 L24.11,12.3815 L13.32,12.3815 L13.32,13.3815 Z M13.32,15.1315 L23.23,15.1315 L23.23,14.1315 L13.32,14.1315 L13.32,15.1315 Z M13.32,11.6315 L22.24,11.6315 L22.24,10.6315 L13.32,10.6315 L13.32,11.6315 Z M12,7.2315 L12,16.8615 L21.95,16.8615 L24.14,24.3015 L24.85,16.8615 L28.13,16.8615 L28.13,7.2315 L12,7.2315 Z" id="Fill-70"></path>
            </g>
        </g>
    </g>
</svg>