<?xml version="1.0" encoding="UTF-8"?>
<svg width="70px" height="67px" viewBox="0 0 70 67" version="1.1" xmlns="http://www.w3.org/2000/svg" xmlns:xlink="http://www.w3.org/1999/xlink">
    <!-- Generator: Sketch 50.2 (55047) - http://www.bohemiancoding.com/sketch -->
    <title>Group 17</title>
    <desc>Created with Sketch.</desc>
    <defs></defs>
    <g id="Page-6" stroke="none" stroke-width="1" fill="none" fill-rule="evenodd">
        <g id="OIUFTH1" transform="translate(-31.000000, -34.000000)" fill="#464644">
            <g id="Group-17" transform="translate(31.000000, 34.000000)">
                <g id="Group">
                    <path d="M56.717,38.624 C56.576,38.783 56.626,38.914 56.836,39.023 C56.866,39.054 56.927,39.064 56.977,39.094 C58.246,38.033 59.586,36.804 61.356,35.794 C61.706,35.594 62.036,35.403 62.366,35.254 C62.366,35.244 62.376,35.244 62.376,35.244 C62.826,35.033 63.267,34.884 63.807,34.834 C64.217,34.804 64.986,34.954 64.986,35.594 C64.986,36.344 64.896,37.304 64.816,38.023 C64.626,39.804 63.076,38.134 62.736,38.374 C62.286,38.704 63.736,39.224 63.986,39.584 L63.996,39.584 C65.696,39.584 67.637,39.554 69.736,39.504 L69.736,60.204 L52.927,60.204 C52.927,60.184 52.927,60.184 52.927,60.184 L52.927,60.174 C53.106,59.384 53.206,58.564 53.206,57.714 C53.206,51.573 48.217,46.573 42.076,46.573 C35.927,46.573 30.937,51.573 30.937,57.714 C30.937,58.564 31.026,59.384 31.227,60.174 L31.227,60.184 L31.217,60.184 C31.217,60.184 31.227,60.184 31.227,60.204 L25.767,60.204 C24.746,60.204 24.446,60.204 23.807,60.153 C23.517,60.153 23.166,60.124 22.656,60.094 C22.397,60.084 22.106,60.064 21.757,60.054 C21.597,60.033 21.396,60.033 21.196,60.023 C20.746,59.994 20.366,59.934 20.057,59.823 C19.996,59.804 19.956,59.794 19.906,59.773 C19.847,59.744 19.786,59.733 19.727,59.684 C19.606,59.644 19.496,59.584 19.406,59.504 C19.236,59.384 19.137,59.264 19.046,59.104 C18.986,59.004 18.937,58.884 18.906,58.773 C18.816,58.424 18.847,58.064 18.937,57.764 C18.937,57.714 18.956,57.684 18.967,57.634 C18.967,57.604 18.986,57.573 18.996,57.544 C19.017,57.474 19.046,57.394 19.076,57.334 C19.116,57.244 19.146,57.164 19.177,57.104 C19.217,57.073 19.227,57.044 19.227,57.044 L19.227,57.033 C19.227,57.033 19.236,57.014 19.276,56.974 C19.276,56.974 19.276,56.974 19.276,56.954 C19.286,56.914 19.336,56.834 19.376,56.754 C19.406,56.664 19.467,56.564 19.517,56.454 C19.557,56.344 19.606,56.224 19.637,56.124 C19.687,55.954 19.717,55.804 19.717,55.664 C19.717,54.804 19.717,54.014 19.727,53.314 C19.727,53.073 19.746,52.844 19.746,52.613 L19.746,52.394 C19.746,52.233 19.746,52.113 19.757,51.974 L19.757,51.914 C19.757,51.733 19.776,51.554 19.776,51.384 C19.786,51.193 19.786,51.004 19.807,50.823 C19.807,50.664 19.816,50.474 19.836,50.323 C19.836,50.164 19.847,49.994 19.866,49.844 C19.876,49.704 19.896,49.554 19.896,49.414 C19.927,49.174 19.937,48.974 19.967,48.754 C21.626,48.804 23.326,48.903 24.887,48.584 C26.986,48.084 27.586,46.374 28.086,44.474 C26.076,44.323 23.996,44.344 21.946,44.363 C22.126,44.124 22.307,43.863 22.517,43.554 C22.656,43.363 22.477,43.483 22.696,43.374 L22.786,43.313 L27.906,43.023 L28.137,43.014 L28.446,42.994 L28.467,42.994 L50.996,41.724 L52.437,41.634 L50.986,41.714 L33.656,25.863 L33.177,25.414 L28.126,20.804 C32.137,20.664 47.347,35.134 52.456,38.434 C52.446,38.434 52.437,38.434 52.437,38.434 L52.437,38.504 L52.456,38.434 C52.836,38.344 53.137,38.244 53.366,38.153 C54.807,37.554 63.576,32.914 69.736,30.104 L69.736,31.494 C64.576,33.744 58.177,36.884 56.717,38.624" id="Fill-103"></path>
                    <path d="M52.456,38.434 L52.437,38.504 L52.437,38.434 C52.437,38.434 52.446,38.434 52.456,38.434" id="Fill-104"></path>
                    <path d="M21.321,47.953 C20.933,47.953 20.542,47.945 20.151,47.935 C20.435,46.855 20.87,46.216 21.594,45.218 C22.196,45.213 22.8,45.208 23.403,45.208 C24.572,45.208 25.554,45.226 26.436,45.264 C25.942,46.666 25.325,47.431 24.075,47.727 C23.34,47.879 22.455,47.953 21.321,47.953" id="Fill-105"></path>
                    <path d="M47.526,63.204 L46.906,63.764 L46.847,63.794 C46.746,63.884 46.566,64.004 46.397,64.124 L45.696,64.533 C44.566,65.134 43.366,65.434 42.097,65.434 C40.826,65.434 39.637,65.134 38.536,64.554 C38.296,64.443 38.057,64.294 37.826,64.144 C37.647,64.023 37.467,63.894 37.286,63.754 L36.706,63.224 C35.856,62.394 35.236,61.434 34.847,60.344 C34.536,59.483 34.376,58.604 34.376,57.714 C34.376,57.283 34.416,56.844 34.496,56.403 C34.526,56.153 34.586,55.874 34.687,55.584 C34.727,55.403 34.796,55.184 34.866,54.983 C34.967,54.724 35.086,54.464 35.217,54.224 C36.347,51.994 38.496,50.434 40.967,50.073 C41.236,50.023 41.507,50.004 41.776,49.994 C41.876,49.983 41.977,49.983 42.097,49.983 C42.236,49.983 42.347,49.983 42.477,49.994 C42.717,50.004 42.986,50.023 43.257,50.073 C45.736,50.443 47.876,52.004 48.996,54.244 C49.106,54.443 49.227,54.684 49.336,54.994 C49.406,55.193 49.486,55.414 49.546,55.634 C49.616,55.874 49.677,56.144 49.717,56.414 C49.786,56.823 49.826,57.254 49.826,57.714 C49.826,58.624 49.677,59.504 49.366,60.344 C48.967,61.424 48.336,62.414 47.526,63.204 Z M42.106,48.684 C37.126,48.684 33.076,52.733 33.076,57.714 C33.076,62.693 37.126,66.744 42.106,66.744 C47.076,66.744 51.137,62.693 51.137,57.714 C51.137,52.733 47.076,48.684 42.106,48.684 Z" id="Fill-106"></path>
                    <path d="M48.257,60.174 C47.937,60.974 47.456,61.714 46.816,62.354 L45.246,60.174 L44.916,59.714 L44.147,58.674 L43.847,58.244 L44.336,58.084 L45.576,57.684 L48.647,56.684 C48.696,57.033 48.736,57.363 48.736,57.714 C48.736,58.564 48.566,59.394 48.257,60.174 Z M46.217,62.894 C46.097,62.994 45.946,63.104 45.776,63.204 L45.767,63.224 L43.536,60.174 L43.177,59.674 L42.727,59.044 C42.736,59.033 42.746,59.023 42.767,59.014 C42.916,58.943 43.066,58.844 43.187,58.714 C43.187,58.704 43.206,58.684 43.217,58.674 L43.677,59.314 L44.296,60.174 L46.246,62.874 L46.217,62.894 Z M42.097,64.334 C41.046,64.334 40.036,64.094 39.116,63.624 L41.036,60.974 L41.616,60.174 L41.796,59.924 L42.116,59.504 L42.427,59.934 L42.597,60.174 L43.177,60.974 L45.086,63.613 C44.177,64.094 43.166,64.334 42.097,64.334 Z M38.456,63.244 C38.446,63.233 38.446,63.233 38.446,63.233 C38.267,63.113 38.126,63.004 37.967,62.894 C37.967,62.884 37.967,62.884 37.956,62.874 L39.916,60.174 L40.546,59.314 L41.017,58.664 C41.026,58.674 41.036,58.684 41.036,58.693 C41.156,58.823 41.296,58.943 41.467,59.014 C41.477,59.023 41.496,59.033 41.507,59.033 L41.036,59.684 L40.677,60.174 L38.456,63.244 Z M37.397,62.363 C36.767,61.724 36.276,60.983 35.956,60.174 C35.646,59.403 35.477,58.564 35.477,57.714 C35.477,57.363 35.496,57.014 35.566,56.674 L38.656,57.684 L39.887,58.084 L40.376,58.244 L40.066,58.674 L39.316,59.714 L38.977,60.174 L37.397,62.363 Z M35.717,55.924 C35.776,55.754 35.826,55.564 35.897,55.394 C35.906,55.384 35.906,55.363 35.916,55.344 L40.066,56.704 L40.866,56.954 C40.866,56.964 40.856,56.964 40.856,56.964 C40.757,57.134 40.696,57.323 40.666,57.523 C40.666,57.533 40.666,57.533 40.666,57.544 L39.887,57.283 L35.717,55.934 C35.717,55.924 35.717,55.924 35.717,55.924 Z M41.036,51.174 L41.036,56.214 L40.546,56.054 L39.316,55.653 L36.227,54.644 C37.206,52.794 38.986,51.494 41.036,51.174 Z M42.097,57.054 C42.467,57.054 42.757,57.344 42.757,57.704 C42.757,58.064 42.467,58.363 42.097,58.363 C41.736,58.363 41.446,58.064 41.446,57.704 C41.446,57.344 41.736,57.054 42.097,57.054 Z M41.796,51.094 L41.816,51.094 C41.927,51.084 41.996,51.084 42.066,51.084 L42.356,51.084 C42.376,51.084 42.406,51.084 42.427,51.094 L42.427,56.273 L42.416,56.273 L42.406,56.264 C42.316,56.254 42.217,56.244 42.126,56.244 C42.026,56.244 41.916,56.254 41.816,56.273 C41.807,56.273 41.807,56.273 41.807,56.273 L41.796,56.273 L41.796,51.094 Z M43.177,51.174 C45.227,51.504 47.007,52.804 47.977,54.653 L44.916,55.653 L43.677,56.054 L43.177,56.214 L43.177,51.174 Z M48.307,55.384 C48.366,55.554 48.437,55.733 48.477,55.903 C48.477,55.924 48.486,55.924 48.486,55.934 L44.336,57.283 L43.576,57.533 C43.576,57.514 43.566,57.504 43.566,57.494 C43.546,57.304 43.477,57.124 43.397,56.974 C43.376,56.964 43.376,56.954 43.376,56.943 L44.147,56.704 L48.296,55.354 C48.296,55.363 48.296,55.374 48.307,55.384 Z M49.227,56.494 C49.187,56.244 49.126,55.994 49.057,55.754 C49.007,55.554 48.937,55.354 48.866,55.164 C48.776,54.924 48.677,54.693 48.546,54.464 C47.526,52.414 45.526,50.914 43.177,50.564 C42.927,50.523 42.677,50.504 42.427,50.494 C42.316,50.483 42.217,50.483 42.097,50.483 C41.996,50.483 41.906,50.483 41.796,50.494 C41.546,50.504 41.296,50.523 41.036,50.564 C38.677,50.914 36.696,52.403 35.656,54.464 C35.536,54.684 35.427,54.924 35.336,55.164 C35.267,55.344 35.206,55.544 35.156,55.744 C35.076,55.983 35.017,56.233 34.986,56.494 C34.916,56.884 34.876,57.294 34.876,57.714 C34.876,58.573 35.036,59.403 35.316,60.174 C35.687,61.193 36.276,62.104 37.036,62.854 L37.606,63.363 C37.767,63.494 37.927,63.613 38.106,63.724 C38.316,63.863 38.536,64.004 38.767,64.113 C39.767,64.644 40.896,64.934 42.097,64.934 C43.316,64.934 44.446,64.634 45.446,64.104 L46.116,63.714 C46.276,63.604 46.446,63.483 46.606,63.354 L46.626,63.344 L47.147,62.874 L47.177,62.844 C47.937,62.104 48.526,61.184 48.897,60.174 C49.177,59.403 49.326,58.573 49.326,57.714 C49.326,57.294 49.296,56.894 49.227,56.494 Z" id="Fill-107"></path>
                    <path d="M29.427,33.773 C29.486,33.764 29.546,33.754 29.616,33.744 L28.187,38.443 C27.776,38.073 27.507,37.594 27.366,37.073 C27.147,37.184 26.927,37.273 26.677,37.354 C24.847,37.934 23.356,37.264 22.446,36.113 C21.566,36.233 20.687,36.174 19.816,35.954 L19.807,35.943 C19.477,35.863 19.166,35.754 18.847,35.634 C18.396,35.483 17.946,35.323 17.507,35.124 C15.906,34.363 14.687,32.794 14.156,31.134 C13.836,30.113 13.776,29.033 13.946,27.994 C10.946,27.533 8.996,24.714 8.826,21.854 C6.906,21.084 5.257,19.684 4.196,17.844 C-0.354,16.134 -1.554,8.334 4.387,6.464 C5.097,6.244 5.776,6.144 6.406,6.153 C7.286,5.424 8.316,4.844 9.467,4.483 C14.267,2.964 19.546,5.714 21.057,10.514 C21.276,11.214 21.406,11.924 21.456,12.624 C23.427,14.434 23.586,18.254 20.517,19.514 C20.866,20.403 21.046,21.363 21.007,22.314 C21.437,22.344 21.856,22.414 22.276,22.523 C22.276,22.523 22.276,22.523 22.276,22.514 C22.586,21.884 23.147,21.363 24.017,21.084 C27.036,20.134 28.786,23.823 27.267,25.814 C27.566,26.304 27.816,26.814 27.986,27.344 C28.307,28.384 28.376,29.483 28.196,30.544 C28.996,31.394 29.446,32.594 29.427,33.773" id="Fill-108"></path>
                    <path d="M32.187,41.604 C31.316,41.884 30.586,41.624 30.097,41.113 L32.076,34.554 C32.897,35.354 33.166,36.613 32.666,37.684 C33.967,38.573 34.166,40.983 32.187,41.604" id="Fill-109"></path>
                    <path d="M24.527,10.023 C22.682,10.606 23.584,13.469 25.433,12.887 C27.28,12.304 26.377,9.439 24.527,10.023" id="Fill-110"></path>
                    <path d="M3.334,0.384 C0.747,1.199 2.011,5.209 4.598,4.395 C7.185,3.578 5.919,-0.433 3.334,0.384" id="Fill-111"></path>
                    <path d="M52.456,38.434 L52.437,38.504 L52.437,38.434 C52.437,38.434 52.446,38.434 52.456,38.434" id="Fill-112"></path>
                    <polyline id="Fill-113" points="33.336 26.924 28.786 41.974 28.146 42.014 32.856 26.483 32.986 26.604 33.336 26.924"></polyline>
                </g>
            </g>
        </g>
    </g>
</svg>