<?xml version="1.0" encoding="UTF-8"?>
<svg width="65px" height="53px" viewBox="0 0 65 53" version="1.1" xmlns="http://www.w3.org/2000/svg" xmlns:xlink="http://www.w3.org/1999/xlink">
    <!-- Generator: Sketch 50.2 (55047) - http://www.bohemiancoding.com/sketch -->
    <title>Group 14</title>
    <desc>Created with Sketch.</desc>
    <defs></defs>
    <g id="Page-6" stroke="none" stroke-width="1" fill="none" fill-rule="evenodd">
        <g id="OIUFTH1" transform="translate(-139.000000, -359.000000)" fill="#464644">
            <g id="Group-14" transform="translate(139.000000, 359.000000)">
                <path d="M22.669,22.52 C22.669,22.81 22.439,23.04 22.149,23.04 C21.869,23.04 21.629,22.81 21.629,22.52 C21.629,22.229 21.869,21.99 22.149,21.99 C22.439,21.99 22.669,22.229 22.669,22.52" id="Fill-76"></path>
                <path d="M40.149,27.75 C39.31,27.75 38.629,28.43 38.629,29.27 C38.629,30.109 39.31,30.79 40.149,30.79 C40.989,30.79 41.669,30.109 41.669,29.27 C41.669,28.43 40.989,27.75 40.149,27.75 Z M36.06,37.01 C33.289,35.54 31.399,32.62 31.399,29.27 C31.399,26.47 32.719,23.97 34.779,22.37 L27.899,20.859 C28.06,21.39 28.14,21.939 28.14,22.52 C28.14,25.819 25.459,28.51 22.149,28.51 C21.819,28.51 21.489,28.479 21.18,28.43 L23.129,34.92 C23.989,34.26 25.06,33.859 26.229,33.859 C29.029,33.859 31.299,36.14 31.299,38.939 L31.299,38.95 L36.06,37.01 Z M26.229,38.68 C26.079,38.68 25.969,38.79 25.969,38.939 C25.969,39.08 26.089,39.2 26.229,39.2 C26.369,39.2 26.479,39.08 26.479,38.939 C26.479,38.79 26.369,38.68 26.229,38.68 Z M40.149,27.75 C39.31,27.75 38.629,28.43 38.629,29.27 C38.629,30.109 39.31,30.79 40.149,30.79 C40.989,30.79 41.669,30.109 41.669,29.27 C41.669,28.43 40.989,27.75 40.149,27.75 Z M40.149,27.75 C39.31,27.75 38.629,28.43 38.629,29.27 C38.629,30.109 39.31,30.79 40.149,30.79 C40.989,30.79 41.669,30.109 41.669,29.27 C41.669,28.43 40.989,27.75 40.149,27.75 Z M36.06,37.01 C33.289,35.54 31.399,32.62 31.399,29.27 C31.399,26.47 32.719,23.97 34.779,22.37 L27.899,20.859 C28.06,21.39 28.14,21.939 28.14,22.52 C28.14,25.819 25.459,28.51 22.149,28.51 C21.819,28.51 21.489,28.479 21.18,28.43 L23.129,34.92 C23.989,34.26 25.06,33.859 26.229,33.859 C29.029,33.859 31.299,36.14 31.299,38.939 L31.299,38.95 L36.06,37.01 Z M40.149,27.75 C39.31,27.75 38.629,28.43 38.629,29.27 C38.629,30.109 39.31,30.79 40.149,30.79 C40.989,30.79 41.669,30.109 41.669,29.27 C41.669,28.43 40.989,27.75 40.149,27.75 Z M40.149,27.75 C39.31,27.75 38.629,28.43 38.629,29.27 C38.629,30.109 39.31,30.79 40.149,30.79 C40.989,30.79 41.669,30.109 41.669,29.27 C41.669,28.43 40.989,27.75 40.149,27.75 Z M36.06,37.01 C33.289,35.54 31.399,32.62 31.399,29.27 C31.399,26.47 32.719,23.97 34.779,22.37 L27.899,20.859 C28.06,21.39 28.14,21.939 28.14,22.52 C28.14,25.819 25.459,28.51 22.149,28.51 C21.819,28.51 21.489,28.479 21.18,28.43 L23.129,34.92 C23.989,34.26 25.06,33.859 26.229,33.859 C29.029,33.859 31.299,36.14 31.299,38.939 L31.299,38.95 L36.06,37.01 Z M26.229,38.68 C26.079,38.68 25.969,38.79 25.969,38.939 C25.969,39.08 26.089,39.2 26.229,39.2 C26.369,39.2 26.479,39.08 26.479,38.939 C26.479,38.79 26.369,38.68 26.229,38.68 Z M36.06,37.01 C33.289,35.54 31.399,32.62 31.399,29.27 C31.399,26.47 32.719,23.97 34.779,22.37 L27.899,20.859 C28.06,21.39 28.14,21.939 28.14,22.52 C28.14,25.819 25.459,28.51 22.149,28.51 C21.819,28.51 21.489,28.479 21.18,28.43 L23.129,34.92 C23.989,34.26 25.06,33.859 26.229,33.859 C29.029,33.859 31.299,36.14 31.299,38.939 L31.299,38.95 L36.06,37.01 Z M40.149,27.75 C39.31,27.75 38.629,28.43 38.629,29.27 C38.629,30.109 39.31,30.79 40.149,30.79 C40.989,30.79 41.669,30.109 41.669,29.27 C41.669,28.43 40.989,27.75 40.149,27.75 Z M40.149,27.75 C39.31,27.75 38.629,28.43 38.629,29.27 C38.629,30.109 39.31,30.79 40.149,30.79 C40.989,30.79 41.669,30.109 41.669,29.27 C41.669,28.43 40.989,27.75 40.149,27.75 Z M36.06,37.01 C33.289,35.54 31.399,32.62 31.399,29.27 C31.399,26.47 32.719,23.97 34.779,22.37 L27.899,20.859 C28.06,21.39 28.14,21.939 28.14,22.52 C28.14,25.819 25.459,28.51 22.149,28.51 C21.819,28.51 21.489,28.479 21.18,28.43 L23.129,34.92 C23.989,34.26 25.06,33.859 26.229,33.859 C29.029,33.859 31.299,36.14 31.299,38.939 L31.299,38.95 L36.06,37.01 Z M26.229,38.68 C26.079,38.68 25.969,38.79 25.969,38.939 C25.969,39.08 26.089,39.2 26.229,39.2 C26.369,39.2 26.479,39.08 26.479,38.939 C26.479,38.79 26.369,38.68 26.229,38.68 Z M26.229,38.68 C26.079,38.68 25.969,38.79 25.969,38.939 C25.969,39.08 26.089,39.2 26.229,39.2 C26.369,39.2 26.479,39.08 26.479,38.939 C26.479,38.79 26.369,38.68 26.229,38.68 Z M36.06,37.01 C33.289,35.54 31.399,32.62 31.399,29.27 C31.399,26.47 32.719,23.97 34.779,22.37 L27.899,20.859 C28.06,21.39 28.14,21.939 28.14,22.52 C28.14,25.819 25.459,28.51 22.149,28.51 C21.819,28.51 21.489,28.479 21.18,28.43 L23.129,34.92 C23.989,34.26 25.06,33.859 26.229,33.859 C29.029,33.859 31.299,36.14 31.299,38.939 L31.299,38.95 L36.06,37.01 Z M40.149,27.75 C39.31,27.75 38.629,28.43 38.629,29.27 C38.629,30.109 39.31,30.79 40.149,30.79 C40.989,30.79 41.669,30.109 41.669,29.27 C41.669,28.43 40.989,27.75 40.149,27.75 Z M25.969,38.939 C25.969,39.08 26.089,39.2 26.229,39.2 C26.369,39.2 26.479,39.08 26.479,38.939 C26.479,38.79 26.369,38.68 26.229,38.68 C26.079,38.68 25.969,38.79 25.969,38.939 Z M22.149,28.51 C21.819,28.51 21.489,28.479 21.18,28.43 L23.129,34.92 C23.989,34.26 25.06,33.859 26.229,33.859 C29.029,33.859 31.299,36.14 31.299,38.939 L31.299,38.95 L36.06,37.01 C33.289,35.54 31.399,32.62 31.399,29.27 C31.399,26.47 32.719,23.97 34.779,22.37 L27.899,20.859 C28.06,21.39 28.14,21.939 28.14,22.52 C28.14,25.819 25.459,28.51 22.149,28.51 Z M41.669,29.27 C41.669,28.43 40.989,27.75 40.149,27.75 C39.31,27.75 38.629,28.43 38.629,29.27 C38.629,30.109 39.31,30.79 40.149,30.79 C40.989,30.79 41.669,30.109 41.669,29.27 Z M39.259,12.38 L38.43,11.819 L38.509,11.71 L26.879,11.71 L26.959,11.819 L25.909,12.54 L19.35,17.08 L19.419,17.18 C20.239,16.76 21.159,16.52 22.149,16.52 C23.069,16.52 23.949,16.729 24.719,17.1 L40.43,20.529 C45.129,20.67 48.899,24.529 48.899,29.27 C48.899,32.97 46.6,36.14 43.35,37.43 L43.159,37.5 L39.439,38.89 L29.209,43.04 C28.379,43.66 27.339,44.02 26.229,44.02 C23.43,44.02 21.149,41.74 21.149,38.939 C21.149,38.88 21.149,38.83 21.159,38.77 L17.35,26.1 C16.589,25.1 16.149,23.859 16.149,22.52 C16.149,20.85 16.829,19.34 17.939,18.26 L17.85,18.13 L11.049,22.84 L22.729,52.71 L42.659,52.71 L54.339,22.85 L54.339,22.84 L39.259,12.38 Z M40.149,27.75 C39.31,27.75 38.629,28.43 38.629,29.27 C38.629,30.109 39.31,30.79 40.149,30.79 C40.989,30.79 41.669,30.109 41.669,29.27 C41.669,28.43 40.989,27.75 40.149,27.75 Z M36.06,37.01 C33.289,35.54 31.399,32.62 31.399,29.27 C31.399,26.47 32.719,23.97 34.779,22.37 L27.899,20.859 C28.06,21.39 28.14,21.939 28.14,22.52 C28.14,25.819 25.459,28.51 22.149,28.51 C21.819,28.51 21.489,28.479 21.18,28.43 L23.129,34.92 C23.989,34.26 25.06,33.859 26.229,33.859 C29.029,33.859 31.299,36.14 31.299,38.939 L31.299,38.95 L36.06,37.01 Z M26.229,38.68 C26.079,38.68 25.969,38.79 25.969,38.939 C25.969,39.08 26.089,39.2 26.229,39.2 C26.369,39.2 26.479,39.08 26.479,38.939 C26.479,38.79 26.369,38.68 26.229,38.68 Z M26.229,38.68 C26.079,38.68 25.969,38.79 25.969,38.939 C25.969,39.08 26.089,39.2 26.229,39.2 C26.369,39.2 26.479,39.08 26.479,38.939 C26.479,38.79 26.369,38.68 26.229,38.68 Z M36.06,37.01 C33.289,35.54 31.399,32.62 31.399,29.27 C31.399,26.47 32.719,23.97 34.779,22.37 L27.899,20.859 C28.06,21.39 28.14,21.939 28.14,22.52 C28.14,25.819 25.459,28.51 22.149,28.51 C21.819,28.51 21.489,28.479 21.18,28.43 L23.129,34.92 C23.989,34.26 25.06,33.859 26.229,33.859 C29.029,33.859 31.299,36.14 31.299,38.939 L31.299,38.95 L36.06,37.01 Z M40.149,27.75 C39.31,27.75 38.629,28.43 38.629,29.27 C38.629,30.109 39.31,30.79 40.149,30.79 C40.989,30.79 41.669,30.109 41.669,29.27 C41.669,28.43 40.989,27.75 40.149,27.75 Z M40.149,27.75 C39.31,27.75 38.629,28.43 38.629,29.27 C38.629,30.109 39.31,30.79 40.149,30.79 C40.989,30.79 41.669,30.109 41.669,29.27 C41.669,28.43 40.989,27.75 40.149,27.75 Z M36.06,37.01 C33.289,35.54 31.399,32.62 31.399,29.27 C31.399,26.47 32.719,23.97 34.779,22.37 L27.899,20.859 C28.06,21.39 28.14,21.939 28.14,22.52 C28.14,25.819 25.459,28.51 22.149,28.51 C21.819,28.51 21.489,28.479 21.18,28.43 L23.129,34.92 C23.989,34.26 25.06,33.859 26.229,33.859 C29.029,33.859 31.299,36.14 31.299,38.939 L31.299,38.95 L36.06,37.01 Z M26.229,38.68 C26.079,38.68 25.969,38.79 25.969,38.939 C25.969,39.08 26.089,39.2 26.229,39.2 C26.369,39.2 26.479,39.08 26.479,38.939 C26.479,38.79 26.369,38.68 26.229,38.68 Z M26.229,38.68 C26.079,38.68 25.969,38.79 25.969,38.939 C25.969,39.08 26.089,39.2 26.229,39.2 C26.369,39.2 26.479,39.08 26.479,38.939 C26.479,38.79 26.369,38.68 26.229,38.68 Z M36.06,37.01 C33.289,35.54 31.399,32.62 31.399,29.27 C31.399,26.47 32.719,23.97 34.779,22.37 L27.899,20.859 C28.06,21.39 28.14,21.939 28.14,22.52 C28.14,25.819 25.459,28.51 22.149,28.51 C21.819,28.51 21.489,28.479 21.18,28.43 L23.129,34.92 C23.989,34.26 25.06,33.859 26.229,33.859 C29.029,33.859 31.299,36.14 31.299,38.939 L31.299,38.95 L36.06,37.01 Z M40.149,27.75 C39.31,27.75 38.629,28.43 38.629,29.27 C38.629,30.109 39.31,30.79 40.149,30.79 C40.989,30.79 41.669,30.109 41.669,29.27 C41.669,28.43 40.989,27.75 40.149,27.75 Z M40.149,27.75 C39.31,27.75 38.629,28.43 38.629,29.27 C38.629,30.109 39.31,30.79 40.149,30.79 C40.989,30.79 41.669,30.109 41.669,29.27 C41.669,28.43 40.989,27.75 40.149,27.75 Z M26.229,38.68 C26.079,38.68 25.969,38.79 25.969,38.939 C25.969,39.08 26.089,39.2 26.229,39.2 C26.369,39.2 26.479,39.08 26.479,38.939 C26.479,38.79 26.369,38.68 26.229,38.68 Z M36.06,37.01 C33.289,35.54 31.399,32.62 31.399,29.27 C31.399,26.47 32.719,23.97 34.779,22.37 L27.899,20.859 C28.06,21.39 28.14,21.939 28.14,22.52 C28.14,25.819 25.459,28.51 22.149,28.51 C21.819,28.51 21.489,28.479 21.18,28.43 L23.129,34.92 C23.989,34.26 25.06,33.859 26.229,33.859 C29.029,33.859 31.299,36.14 31.299,38.939 L31.299,38.95 L36.06,37.01 Z M40.149,27.75 C39.31,27.75 38.629,28.43 38.629,29.27 C38.629,30.109 39.31,30.79 40.149,30.79 C40.989,30.79 41.669,30.109 41.669,29.27 C41.669,28.43 40.989,27.75 40.149,27.75 Z M40.149,27.75 C39.31,27.75 38.629,28.43 38.629,29.27 C38.629,30.109 39.31,30.79 40.149,30.79 C40.989,30.79 41.669,30.109 41.669,29.27 C41.669,28.43 40.989,27.75 40.149,27.75 Z" id="Fill-77"></path>
                <path d="M39.06,37.96 L30.689,41.359 C30.899,40.97 31.06,40.55 31.159,40.1 L31.159,40.09 L37.359,37.569 C37.899,37.76 38.469,37.89 39.06,37.96" id="Fill-78"></path>
                <path d="M37.529,20.92 C36.979,21.09 36.459,21.319 35.959,21.6 L35.949,21.6 L27.459,19.74 C27.229,19.3 26.949,18.899 26.629,18.54 L37.529,20.92" id="Fill-79"></path>
                <path d="M22.319,35.7 C22.039,36.04 21.799,36.42 21.619,36.819 L18.81,27.49 C19.189,27.75 19.6,27.97 20.039,28.12 L22.319,35.7" id="Fill-80"></path>
                <path d="M40.152,31.79 C38.763,31.79 37.632,30.66 37.632,29.27 C37.632,27.88 38.763,26.75 40.152,26.75 C41.542,26.75 42.672,27.88 42.672,29.27 C42.672,30.66 41.542,31.79 40.152,31.79 Z M40.152,21.52 C35.872,21.52 32.402,24.99 32.402,29.27 C32.402,33.55 35.872,37.029 40.152,37.029 C44.433,37.029 47.902,33.55 47.902,29.27 C47.902,24.99 44.433,21.52 40.152,21.52 Z" id="Fill-81"></path>
                <path d="M22.152,24.04 C21.313,24.04 20.632,23.359 20.632,22.52 C20.632,21.68 21.313,20.99 22.152,20.99 C22.992,20.99 23.672,21.68 23.672,22.52 C23.672,23.359 22.992,24.04 22.152,24.04 Z M22.152,17.52 C19.393,17.52 17.152,19.76 17.152,22.52 C17.152,25.279 19.393,27.51 22.152,27.51 C24.912,27.51 27.143,25.279 27.143,22.52 C27.143,19.76 24.912,17.52 22.152,17.52 Z" id="Fill-82"></path>
                <path d="M26.232,40.2 C25.532,40.2 24.973,39.63 24.973,38.939 C24.973,38.24 25.532,37.68 26.232,37.68 C26.922,37.68 27.482,38.24 27.482,38.939 C27.482,39.63 26.922,40.2 26.232,40.2 Z M26.232,34.859 C23.973,34.859 22.152,36.689 22.152,38.939 C22.152,41.189 23.973,43.02 26.232,43.02 C28.482,43.02 30.302,41.189 30.302,38.939 C30.302,36.689 28.482,34.859 26.232,34.859 Z" id="Fill-83"></path>
                <path d="M44.289,7.34 L45.06,7.34 L45.06,1.43 L44.289,1.43 L44.289,7.34 Z M42.879,7.34 L43.649,7.34 L43.649,1.43 L42.879,1.43 L42.879,7.34 Z M41.479,7.34 L42.249,7.34 L42.249,1.43 L41.479,1.43 L41.479,7.34 Z M40.069,7.34 L40.839,7.34 L40.839,1.43 L40.069,1.43 L40.069,7.34 Z M38.659,7.34 L39.43,7.34 L39.43,1.43 L38.659,1.43 L38.659,7.34 Z M37.249,7.34 L38.029,7.34 L38.029,1.43 L37.249,1.43 L37.249,7.34 Z M35.85,7.34 L36.619,7.34 L36.619,1.43 L35.85,1.43 L35.85,7.34 Z M34.439,7.34 L35.209,7.34 L35.209,1.43 L34.439,1.43 L34.439,7.34 Z M33.029,7.34 L33.799,7.34 L33.799,1.43 L33.029,1.43 L33.029,7.34 Z M31.619,7.34 L32.399,7.34 L32.399,1.43 L31.619,1.43 L31.619,7.34 Z M30.219,7.34 L30.989,7.34 L30.989,1.43 L30.219,1.43 L30.219,7.34 Z M28.81,7.34 L29.579,7.34 L29.579,1.43 L28.81,1.43 L28.81,7.34 Z M27.399,7.34 L28.169,7.34 L28.169,1.43 L27.399,1.43 L27.399,7.34 Z M25.999,7.34 L26.77,7.34 L26.77,1.43 L25.999,1.43 L25.999,7.34 Z M24.589,7.34 L25.359,7.34 L25.359,1.43 L24.589,1.43 L24.589,7.34 Z M23.18,7.34 L23.949,7.34 L23.949,1.43 L23.18,1.43 L23.18,7.34 Z M21.77,7.34 L22.549,7.34 L22.549,1.43 L21.77,1.43 L21.77,7.34 Z M20.369,7.34 L21.14,7.34 L21.14,1.43 L20.369,1.43 L20.369,7.34 Z M19.779,7.93 L45.609,7.93 L45.609,0.76 L19.779,0.76 L19.779,7.93 Z" id="Fill-84"></path>
                <polygon id="Fill-85" points="26.058 10.636 39.333 10.636 39.333 8.718 26.058 8.718"></polygon>
                <path d="M25.569,11.56 L25.35,11.71 L4.659,26.069 L3.919,26.58 L1.369,22.88 C0.109,21.05 0.569,18.56 2.39,17.31 L17.499,6.899 C17.899,6.62 18.339,6.43 18.779,6.319 L18.779,8.93 L23.759,8.93 L25.569,11.56" id="Fill-86"></path>
                <path d="M14.449,34.27 L10.1,34.27 C8.919,34.27 8.479,32.96 8.479,32.96 L5.14,26.939 L10.199,23.43 L14.449,34.27" id="Fill-87"></path>
                <path d="M64.02,22.88 L61.469,26.58 L60.729,26.069 L54.709,21.89 L40.039,11.71 L39.819,11.56 L41.629,8.93 L46.609,8.93 L46.609,6.319 C47.049,6.43 47.489,6.62 47.89,6.899 L62.999,17.31 C64.819,18.56 65.279,21.05 64.02,22.88" id="Fill-88"></path>
                <path d="M60.239,26.95 L56.909,32.96 C56.909,32.96 56.469,34.27 55.289,34.27 L50.939,34.27 L55.18,23.439 L60.239,26.95" id="Fill-89"></path>
            </g>
        </g>
    </g>
</svg>