<?xml version="1.0" encoding="UTF-8"?>
<svg width="73px" height="63px" viewBox="0 0 73 63" version="1.1" xmlns="http://www.w3.org/2000/svg" xmlns:xlink="http://www.w3.org/1999/xlink">
    <!-- Generator: Sketch 50.2 (55047) - http://www.bohemiancoding.com/sketch -->
    <title>Group 8</title>
    <desc>Created with Sketch.</desc>
    <defs></defs>
    <g id="Page-6" stroke="none" stroke-width="1" fill="none" fill-rule="evenodd">
        <g id="OIUFTH1" transform="translate(-347.000000, -141.000000)" fill="#464644">
            <g id="Group-8" transform="translate(347.000000, 141.000000)">
                <path d="M16.578,9.956 C16.393,10.29 16.268,10.543 16.221,10.677 C16.091,11.075 16.039,11.273 15.997,11.383 C15.768,11.327 15.514,11.228 15.309,11.294 C15.106,11.374 15.07,11.571 14.832,11.633 C14.549,11.69 14.133,11.534 13.855,11.495 C13.259,11.396 12.639,11.315 12.043,11.177 C11.084,10.958 10.75,10.064 10.807,9.167 C10.869,8.33 11.723,8.053 12.398,7.952 C13.073,7.831 13.992,7.53 14.628,7.912 C15.553,8.48 15.188,10.211 16.578,9.956" id="Fill-131"></path>
                <path d="M58.321,30.263 C57.182,30.263 56.092,30.303 54.981,30.323 C54.521,30.333 54.071,30.333 53.611,30.333 C52.651,30.333 50.631,30.413 49.762,30.093 C48.332,29.613 47.961,27.723 47.571,26.373 C47.672,26.343 47.771,26.323 47.881,26.303 C48.021,26.283 48.182,26.253 48.342,26.223 C48.441,26.213 48.551,26.193 48.661,26.173 C48.701,26.173 48.731,26.173 48.771,26.163 C48.911,26.143 49.071,26.123 49.221,26.103 L49.262,26.103 C49.411,26.083 49.571,26.063 49.731,26.043 C50.121,26.003 50.531,25.963 50.961,25.933 C51.082,25.933 51.201,25.923 51.321,25.913 C51.971,25.863 52.642,25.823 53.301,25.803 C53.471,25.793 53.642,25.783 53.812,25.773 L54.182,25.773 C54.332,25.763 54.471,25.763 54.621,25.753 L54.971,25.753 C56.682,25.723 58.071,25.793 58.471,25.933 C59.541,26.333 59.352,27.313 59.672,28.353 C59.991,29.783 59.752,30.263 58.321,30.263 Z M45.971,28.283 C45.461,29.713 43.471,29.523 43.271,29.523 L29.491,29.533 C29.301,29.533 27.301,29.733 26.791,28.303 C26.262,26.863 25.471,24.553 25.191,23.403 C24.892,22.193 23.911,20.113 29.771,20.243 C32.791,20.303 34.971,20.303 36.371,20.283 C37.781,20.303 39.961,20.303 42.981,20.233 C48.832,20.093 47.861,22.173 47.562,23.383 C47.281,24.533 46.491,26.853 45.971,28.283 Z M23.012,30.113 C22.131,30.433 20.111,30.363 19.151,30.363 C18.801,30.363 18.451,30.363 18.111,30.353 C17.271,30.343 16.432,30.323 15.582,30.313 C15.201,30.303 14.832,30.303 14.441,30.303 C13.012,30.303 12.771,29.823 13.092,28.393 C13.411,27.353 13.211,26.373 14.281,25.973 C14.672,25.833 15.971,25.773 17.582,25.783 C17.752,25.783 17.932,25.783 18.111,25.793 C18.642,25.803 19.201,25.813 19.771,25.843 C20.111,25.853 20.451,25.873 20.791,25.893 C20.922,25.893 21.041,25.903 21.161,25.913 C21.352,25.923 21.531,25.943 21.711,25.953 C21.892,25.963 22.071,25.983 22.252,25.993 C22.432,26.013 22.602,26.033 22.771,26.043 C23.031,26.063 23.281,26.093 23.521,26.123 C23.682,26.143 23.842,26.163 23.981,26.183 C24.111,26.203 24.231,26.223 24.352,26.233 C24.411,26.243 24.471,26.253 24.521,26.263 C24.602,26.273 24.672,26.293 24.741,26.303 C24.771,26.313 24.801,26.313 24.821,26.313 C24.871,26.323 24.922,26.333 24.971,26.343 C25.051,26.363 25.121,26.373 25.191,26.393 C24.791,27.743 24.441,29.633 23.012,30.113 Z M13.621,16.743 C13.801,15.913 13.981,16.033 14.871,16.023 C16.241,16.023 17.562,16.153 18.932,16.393 C20.731,16.683 22.821,16.623 24.602,17.153 C22.531,20.863 20.252,20.213 17.621,20.213 C16.191,20.213 13.981,20.213 13.621,18.483 C13.502,18.003 13.502,17.283 13.621,16.743 Z M21.752,2.833 L36.371,2.323 L50.961,2.803 C50.961,2.803 56.231,11.003 55.832,11.003 C55.451,11.003 42.281,10.263 36.361,10.393 C30.451,10.273 17.271,11.033 16.901,11.033 C16.502,11.033 21.752,2.833 21.752,2.833 Z M57.861,15.993 C58.762,15.993 58.941,15.873 59.121,16.703 C59.241,17.243 59.241,17.963 59.121,18.443 C58.762,20.173 56.562,20.173 55.121,20.173 C52.491,20.183 50.211,20.833 48.142,17.133 C49.922,16.603 52.021,16.653 53.812,16.363 C55.172,16.113 56.491,15.993 57.861,15.993 Z M61.771,16.613 C61.721,15.773 59.771,13.973 59.211,13.423 C58.842,13.063 57.541,11.953 57.111,11.673 C56.852,11.513 56.801,11.513 56.731,11.353 C56.691,11.233 56.642,11.033 56.512,10.643 C56.461,10.503 56.342,10.253 56.151,9.923 C55.031,7.893 51.762,2.843 51.491,2.563 C51.161,2.243 50.451,1.603 49.432,1.423 C48.422,1.253 38.271,0.723 36.361,0.723 C34.441,0.723 24.291,1.273 23.281,1.453 C22.262,1.633 21.551,2.263 21.231,2.583 C20.961,2.863 17.691,7.923 16.582,9.953 C16.392,10.293 16.271,10.543 16.221,10.673 C16.092,11.073 16.041,11.273 16.002,11.383 C15.951,11.493 15.691,11.673 15.592,11.723 C15.571,11.743 15.562,11.753 15.562,11.753 C15.281,11.943 14.142,12.713 13.531,13.363 C12.602,14.343 11.012,15.813 10.971,16.653 C10.932,17.493 10.571,18.083 10.661,19.763 C10.691,20.573 10.922,23.033 11.142,25.373 C11.361,27.833 11.602,30.163 11.621,30.343 C11.661,30.703 11.541,31.103 11.701,31.413 C11.861,31.733 12.262,31.823 12.892,31.813 C13.092,31.813 15.201,31.843 18.111,31.883 C25.031,31.963 36.381,32.113 36.381,32.113 C36.381,32.113 48.092,31.943 54.981,31.843 C57.711,31.803 59.691,31.773 59.871,31.773 C60.502,31.773 60.901,31.693 61.071,31.373 C61.221,31.063 61.102,30.663 61.142,30.303 C61.172,30.053 61.582,25.843 61.852,22.743 C61.971,21.373 62.062,20.223 62.092,19.713 C62.172,18.043 61.812,17.443 61.771,16.613 Z" id="Fill-132"></path>
                <path d="M18.111,32.883 L18.111,35.633 C18.111,35.893 17.901,36.113 17.642,36.113 L11.631,36.123 C11.361,36.123 11.151,35.903 11.151,35.643 L11.151,32.313 C11.672,32.793 12.432,32.813 12.852,32.813 C12.861,32.813 18.102,32.883 18.102,32.883 L18.111,32.883" id="Fill-133"></path>
                <path d="M61.951,31.843 L61.951,35.593 C61.951,35.863 61.741,36.073 61.471,36.073 L55.461,36.083 C55.201,36.083 54.981,35.863 54.981,35.603 L54.981,32.843 C57.821,32.803 59.832,32.773 59.871,32.773 C60.342,32.773 61.432,32.773 61.951,31.843" id="Fill-134"></path>
                <path d="M17.57,28.077 C17.57,29.083 16.756,29.898 15.75,29.9 C14.746,29.9 13.929,29.086 13.928,28.079 C13.928,27.073 14.742,26.256 15.75,26.257 C16.752,26.256 17.568,27.071 17.57,28.077" id="Fill-135"></path>
                <path d="M60.691,11.135 C60.096,11.274 59.472,11.355 58.876,11.456 C58.598,11.495 58.184,11.653 57.901,11.596 C57.662,11.534 57.625,11.338 57.424,11.257 C57.217,11.19 56.965,11.291 56.736,11.349 C56.693,11.238 56.64,11.038 56.51,10.641 C56.463,10.507 56.34,10.255 56.151,9.92 C57.541,10.171 57.172,8.444 58.1,7.874 C58.732,7.491 59.651,7.792 60.33,7.911 C61.004,8.01 61.859,8.287 61.92,9.123 C61.979,10.019 61.646,10.912 60.691,11.135" id="Fill-136"></path>
                <path d="M20.704,28.075 C20.705,28.791 20.125,29.374 19.406,29.374 C18.691,29.374 18.107,28.794 18.108,28.076 C18.106,27.357 18.688,26.776 19.406,26.776 C20.123,26.775 20.705,27.356 20.704,28.075" id="Fill-137"></path>
                <path d="M58.713,28.041 C58.717,29.045 57.902,29.863 56.893,29.863 C55.891,29.865 55.072,29.049 55.071,28.042 C55.068,27.039 55.887,26.222 56.891,26.22 C57.898,26.221 58.715,27.034 58.713,28.041" id="Fill-138"></path>
                <path d="M54.354,28.044 C54.355,28.763 53.773,29.343 53.057,29.345 C52.342,29.344 51.758,28.764 51.758,28.047 C51.759,27.329 52.338,26.746 53.055,26.747 C53.773,26.746 54.354,27.326 54.354,28.044" id="Fill-139"></path>
                <polygon id="Fill-140" points="0.575 62.013 13.745 62.013 13.745 57.263 0.575 57.263"></polygon>
                <polyline id="Fill-141" points="5.035 56.263 5.035 16.013 9.285 16.013 9.285 37.083 19.715 37.083 19.715 38.743 9.285 38.743 9.285 56.263 5.035 56.263"></polyline>
                <polygon id="Fill-142" points="59.313 62.044 72.482 62.044 72.482 57.294 59.313 57.294"></polygon>
                <polyline id="Fill-143" points="63.773 56.294 63.773 38.774 53.343 38.774 53.343 37.114 63.773 37.114 63.773 16.044 68.023 16.044 68.023 56.294 63.773 56.294"></polyline>
            </g>
        </g>
    </g>
</svg>