<?xml version="1.0" encoding="UTF-8"?>
<svg width="48px" height="48px" viewBox="0 0 48 48" version="1.1" xmlns="http://www.w3.org/2000/svg" xmlns:xlink="http://www.w3.org/1999/xlink">
    <!-- Generator: Sketch 50.2 (55047) - http://www.bohemiancoding.com/sketch -->
    <title>Fill 17</title>
    <desc>Created with Sketch.</desc>
    <defs></defs>
    <g id="Page-2" stroke="none" stroke-width="1" fill="none" fill-rule="evenodd">
        <g id="Artboard" transform="translate(-81.000000, -46.000000)" fill="#FFFFFF">
            <path d="M112.645619,76.2958814 C112.59378,76.9258649 112.519536,77.2861065 112.519536,77.2861065 L112.342492,77.3006041 C112.342492,77.3006041 112.211576,76.9605711 112.013006,76.3718836 C111.915478,76.0801757 111.797741,75.7260846 111.662432,75.3192751 C111.530638,74.9177375 111.382588,74.4652389 111.205545,74.0004393 C111.115046,73.7689182 111.022789,73.5369577 110.916915,73.3194948 L110.83652,73.1727622 L110.797421,73.0989566 C110.78512,73.0787479 110.781606,73.0875343 110.775894,73.0796266 C110.771062,73.0756727 110.767987,73.0708402 110.766229,73.065129 C110.760079,73.056782 110.77897,73.0629325 110.740749,73.0273476 L110.738113,73.0247117 C110.728888,73.0229544 110.719662,73.0220758 110.711315,73.0198792 C110.68232,73.0124108 110.614226,73.0031851 110.568977,72.9900055 C110.448605,72.9671609 110.319007,72.9451949 110.176669,72.9267435 C109.892432,72.8946733 109.591501,72.8463482 109.276952,72.8186711 C108.024025,72.6710599 106.641061,72.4632619 105.258976,72.4 C104.567934,72.3657331 103.875573,72.3459638 103.196831,72.3442065 C102.518968,72.3459638 101.852088,72.3569467 101.226943,72.4105437 C100.919862,72.4404174 100.608827,72.4817133 100.373354,72.5493685 L100.289445,72.5739703 C100.289005,72.5752883 100.286809,72.5717738 100.281098,72.5656233 C100.284173,72.5449753 100.245952,72.5788029 100.21564,72.6034047 L100.202899,72.614827 L100.199824,72.6187809 C100.172147,72.667106 100.137442,72.696101 100.108007,72.7549698 L100.018387,72.9298188 C99.7899433,73.4275673 99.6353045,73.9819879 99.5008741,74.4797364 C99.2350885,75.485777 99.0716633,76.3481604 98.9460192,76.9478309 C98.8309186,77.5501373 98.7654607,77.8950027 98.7654607,77.8950027 L98.5879774,77.876112 C98.5879774,77.876112 98.6046714,77.5242175 98.6341055,76.9078528 C98.6670541,76.2906096 98.7391018,75.4132894 98.8796826,74.3545305 C98.9578807,73.8229544 99.037836,73.2557935 99.2364064,72.6240527 L99.3255874,72.3802306 C99.3554608,72.2985173 99.413011,72.2027457 99.4604571,72.1153213 L99.4986775,72.0485448 C99.4569426,72.0942339 99.5601816,71.9764964 99.5513953,71.9866008 L99.5566671,71.9817683 L99.5667713,71.9716639 L99.5869798,71.9505766 C99.615096,71.9228995 99.6309113,71.8991763 99.7069128,71.8477759 C99.7692955,71.8034047 99.8365107,71.7625481 99.9041653,71.7252059 L100.041671,71.6658979 C100.402349,71.5191653 100.732713,71.4488742 101.074501,71.3768259 C102.426712,71.1163097 103.843503,71.0363537 105.268202,70.9779242 C105.979892,70.9515651 106.692022,70.9265239 107.397122,70.9133443 C108.101784,70.8975288 108.797659,70.9093904 109.479915,70.9766063 C109.818627,71.0174629 110.159096,71.0578803 110.499126,71.1352004 C110.668262,71.170346 110.844428,71.2147172 111.024107,71.2661175 C111.126468,71.3003844 111.209059,71.3267435 111.322402,71.3737507 L111.496371,71.4537068 C111.517458,71.4620538 111.568858,71.4923668 111.61235,71.5200439 C111.656721,71.5481604 111.699774,71.5784734 111.74107,71.6087864 L111.802574,71.6562328 C111.969513,71.8179023 111.851338,71.7045579 111.889997,71.7419001 L111.893951,71.7476112 L111.937004,71.8042834 L112.004659,71.8930258 C112.020913,71.9092806 112.067481,71.9866008 112.099551,72.0410763 L112.199275,72.2181219 C112.228709,72.2743548 112.265172,72.3437672 112.283184,72.3898957 L112.327555,72.5168589 C112.356111,72.6007688 112.384666,72.6833608 112.412782,72.7663921 C112.494495,73.0840198 112.55512,73.3783635 112.592023,73.6577705 C112.668903,74.214827 112.682961,74.7134541 112.689551,75.1558484 C112.691308,75.5973641 112.671978,75.9804503 112.645619,76.2958814 Z M94.9864728,66.072927 C95.0071206,65.7658429 95.141551,65.4069193 95.4437997,65.220648 C95.7355049,65.034816 96.0742168,64.9763866 96.4001885,64.924547 C96.7296748,64.8771005 97.0596004,64.8617243 97.3842542,64.8481054 C97.7080294,64.8362438 98.0278507,64.8305327 98.3358106,64.830972 C98.4904495,64.8314113 98.6415738,64.8314113 98.7900623,64.8314113 C98.9398688,64.8437122 99.0857213,64.8555739 99.2280594,64.8674355 C99.5153715,64.8700714 99.7745673,64.9640857 100.017069,65.0233937 C100.13832,65.0545854 100.240681,65.1253158 100.345238,65.1705656 C100.396637,65.1960461 100.446719,65.220648 100.495044,65.2443712 C100.539854,65.2751236 100.579832,65.3107084 100.620249,65.3419001 C100.697568,65.4091159 100.782795,65.457441 100.836831,65.5286107 C100.893942,65.5971444 100.946221,65.6604064 100.992349,65.7170785 C101.067911,65.8444811 101.12634,65.9446458 101.148305,66.0237232 C101.178179,66.1001647 101.183011,66.1397035 101.183011,66.1397035 L101.1136,66.1550796 C101.1136,66.1550796 101.095588,66.1124657 101.048142,66.0549149 C101.0108,65.9942889 100.921619,65.9191653 100.832877,65.8277869 C100.722609,65.7460736 100.599162,65.6560132 100.434419,65.5892367 C100.395319,65.5707853 100.357099,65.549698 100.314925,65.5330038 C100.268357,65.5224602 100.221351,65.5114772 100.172147,65.5000549 C100.073302,65.4824822 99.9893924,65.4363537 99.8778064,65.4293245 C99.6537557,65.4196595 99.4376127,65.3766063 99.1753416,65.403844 C99.0501368,65.4091159 98.9209782,65.414827 98.7891837,65.4205382 C98.6503601,65.4394289 98.4922067,65.4438221 98.3402037,65.457441 C98.0291687,65.4741351 97.7282379,65.5171884 97.414567,65.5312466 C97.1048499,65.5527732 96.788543,65.578693 96.5025489,65.6283361 C96.2169942,65.6582098 95.9270462,65.7210324 95.8115064,65.7965953 C95.7965697,65.8172433 95.7539561,65.825151 95.749563,65.8422845 C95.7425339,65.8484349 95.7333083,65.8537068 95.7214468,65.8585393 C95.716175,65.8695222 95.709146,65.8800659 95.6999204,65.8897309 C95.6779546,65.9002746 95.670047,65.9556288 95.6489598,65.9868204 C95.6340231,66.0325096 95.6217223,66.0891818 95.6072249,66.1423394 C95.5672472,66.3778144 95.5356166,66.6954421 95.5061824,66.9603515 C95.4824594,67.2450302 95.453904,67.4765513 95.4503894,67.7006041 C95.4512681,67.916749 95.4618116,68.0973092 95.5110149,68.2040637 C95.5545071,68.3130148 95.6643359,68.4039539 95.7904193,68.4553542 C95.9129882,68.5036793 96.0228169,68.5462932 96.0979398,68.5669412 C96.1739413,68.5893465 96.2143583,68.6016474 96.2143583,68.6016474 L96.2143583,68.6728171 C96.2143583,68.6728171 96.1730627,68.6728171 96.0953039,68.6719385 C96.0179845,68.6706205 95.9033232,68.667106 95.7574706,68.646458 C95.6151326,68.6249314 95.4235912,68.5704558 95.2794959,68.4074684 C95.133204,68.247117 95.069064,68.0120813 95.0282077,67.7673806 C94.9873514,67.5209226 94.9732933,67.2498627 94.9689002,66.9678199 C94.9675822,66.6835805 94.9565993,66.3870401 94.9864728,66.072927 Z M128.720156,77.5057661 C128.330923,77.4644701 127.887654,77.446458 127.426813,77.4183416 C126.963775,77.3919824 126.475696,77.3643053 125.970923,77.3357496 C125.466589,77.3063152 124.944244,77.3085118 124.41399,77.293575 C123.883298,77.2821527 123.344698,77.2711697 122.805658,77.2601867 C122.266618,77.2711697 121.727579,77.2821527 121.196886,77.293575 C120.663997,77.3093904 120.133305,77.3063152 119.631168,77.3366282 C119.128591,77.3647446 118.642269,77.3928611 118.181867,77.4192202 C117.721026,77.446458 117.285225,77.4635914 116.884131,77.5066447 C116.783528,77.5163097 116.68556,77.5228995 116.58979,77.538715 C116.495337,77.5598023 116.401763,77.5668314 116.30731,77.549698 C116.120162,77.5250961 115.942679,77.5018122 115.7753,77.4794069 C115.438345,77.4341571 115.150154,77.3928611 114.914681,77.3739703 C114.437585,77.3230093 114.145001,77.2861065 114.145001,77.2861065 C114.145001,77.2861065 114.389261,77.1674904 114.850541,76.9750686 C114.968278,76.9285008 115.097436,76.8766612 115.238457,76.8204283 C115.377719,76.770346 115.529722,76.7250961 115.69139,76.6714992 C115.853937,76.6200988 116.027027,76.5647446 116.209782,76.5063152 C116.30072,76.4720483 116.396491,76.4623833 116.495337,76.4654585 C116.594183,76.4637013 116.693907,76.4518396 116.796707,76.4430533 C117.206149,76.3991214 117.651614,76.3811093 118.12256,76.3529929 C118.593505,76.3261944 119.090371,76.2985173 119.603491,76.2690829 C120.117929,76.2396485 120.639835,76.2422845 121.17536,76.2269083 C121.712642,76.2159253 122.260029,76.2040637 122.805658,76.1926414 C123.352605,76.2040637 123.899113,76.2159253 124.437713,76.2269083 C124.975874,76.2422845 125.506567,76.2400879 126.01793,76.2699616 C126.529732,76.2985173 127.0244,76.327073 127.493149,76.3529929 C127.962777,76.3819879 128.402092,76.3991214 128.822956,76.4439319 C128.87831,76.4487644 128.931906,76.4514003 128.986381,76.4553542 C128.991653,76.2734761 129,76.0920373 129,75.908402 L129,75.5213619 C128.909062,75.506425 128.815488,75.4985173 128.720156,75.4906096 C128.330923,75.4479956 127.887654,75.4299835 127.426813,75.4027457 C126.963775,75.3768259 126.475696,75.3482702 125.970923,75.3201538 C125.466589,75.2902801 124.944244,75.292916 124.41399,75.2775398 C123.883298,75.2669962 123.344698,75.2555739 122.805658,75.2437122 C122.266618,75.2555739 121.727579,75.2669962 121.196886,75.2775398 C120.663997,75.292916 120.133305,75.2911587 119.631168,75.3201538 C119.128591,75.3482702 118.642269,75.3768259 118.181867,75.4027457 C117.721026,75.4308622 117.285225,75.4479956 116.884131,75.4910489 C116.783528,75.5007139 116.68556,75.5073037 116.58979,75.5226798 C116.495337,75.5442065 116.401763,75.5507963 116.30731,75.5341021 C116.120162,75.5095003 115.942679,75.485777 115.7753,75.4642504 C115.438345,75.4190005 115.150154,75.3768259 114.914681,75.3579352 C114.437585,75.3069742 114.145001,75.2696321 114.145001,75.2696321 C114.145001,75.2696321 114.389261,75.1514552 114.850541,74.9599121 C114.968278,74.9124657 115.097436,74.8601867 115.238457,74.8039539 C115.377719,74.7543108 115.529722,74.7086216 115.69139,74.6559033 C115.853937,74.6036244 116.027027,74.5482702 116.209782,74.4898407 C116.30072,74.4568918 116.396491,74.4463482 116.495337,74.4494234 C116.594183,74.4485448 116.693907,74.4362438 116.796707,74.4278968 C117.206149,74.3835255 117.651614,74.3655135 118.12256,74.337397 C118.593505,74.3110379 119.090371,74.2824822 119.603491,74.2534871 C120.117929,74.2240527 120.639835,74.2262493 121.17536,74.2108731 C121.712642,74.1994509 122.260029,74.1884679 122.805658,74.1766063 C123.352605,74.1884679 123.899113,74.1994509 124.437713,74.2108731 C124.975874,74.227128 125.506567,74.2240527 126.01793,74.2534871 C126.529732,74.2829215 127.0244,74.3110379 127.493149,74.3378364 C127.962777,74.3655135 128.402092,74.3830862 128.822956,74.4283361 C128.883142,74.4336079 128.941132,74.4362438 129,74.440637 L129,73.5057661 C128.909062,73.4908292 128.815488,73.4829215 128.720156,73.4750137 C128.330923,73.4323998 127.887654,73.4143877 127.426813,73.3871499 C126.963775,73.3612301 126.475696,73.3331137 125.970923,73.3045579 C125.466589,73.2751236 124.944244,73.2773202 124.41399,73.2623833 C123.883298,73.2514003 123.344698,73.2404174 122.805658,73.2281164 C122.266618,73.2404174 121.727579,73.2514003 121.196886,73.2623833 C120.663997,73.2773202 120.133305,73.2755629 119.631168,73.3045579 C119.128591,73.3331137 118.642269,73.3612301 118.181867,73.3871499 C117.721026,73.4152663 117.285225,73.4323998 116.884131,73.4758924 C116.783528,73.4855574 116.68556,73.4917079 116.58979,73.507084 C116.495337,73.5286107 116.401763,73.5352004 116.30731,73.5185063 C116.120162,73.4939044 115.942679,73.4701812 115.7753,73.4486546 C115.438345,73.4034047 115.150154,73.3612301 114.914681,73.3423394 C114.437585,73.2918177 114.145001,73.2540362 114.145001,73.2540362 C114.145001,73.2540362 114.389261,73.1358594 114.850541,72.9443163 C114.968278,72.8968699 115.097436,72.8445909 115.238457,72.788358 C115.377719,72.7382757 115.529722,72.6930258 115.69139,72.6403075 C115.853937,72.5884679 116.027027,72.5326744 116.209782,72.4742449 C116.30072,72.4408567 116.396491,72.4307523 116.495337,72.4342669 C116.594183,72.4329489 116.693907,72.420648 116.796707,72.4118616 C117.206149,72.368369 117.651614,72.3499176 118.12256,72.3218012 C118.593505,72.2950027 119.090371,72.2668863 119.603491,72.2383306 C120.117929,72.2084569 120.639835,72.2106535 121.17536,72.1952773 C121.712642,72.183855 122.260029,72.172872 122.805658,72.1610104 C123.352605,72.172872 123.899113,72.183855 124.437713,72.1952773 C124.975874,72.2110928 125.506567,72.2084569 126.01793,72.2383306 C126.529732,72.267765 127.0244,72.2950027 127.493149,72.3226798 C127.962777,72.3499176 128.402092,72.3674904 128.822956,72.4127403 C128.883142,72.4180121 128.941132,72.420648 129,72.4250412 L129,71.4906096 C128.909062,71.4752334 128.815488,71.4673256 128.720156,71.4585393 C128.330923,71.4172433 127.887654,71.3987919 127.426813,71.3711148 C126.963775,71.3447556 126.475696,71.3170785 125.970923,71.2885228 C125.466589,71.2595277 124.944244,71.261285 124.41399,71.2459088 C123.883298,71.2353652 123.344698,71.2239429 122.805658,71.2129599 C122.266618,71.2239429 121.727579,71.2353652 121.196886,71.2459088 C120.663997,71.2621636 120.133305,71.2595277 119.631168,71.2894014 C119.128591,71.3179572 118.642269,71.3456343 118.181867,71.3719934 C117.721026,71.3987919 117.285225,71.4163646 116.884131,71.4594179 C116.783528,71.4690829 116.68556,71.4752334 116.58979,71.4914882 C116.495337,71.5121362 116.401763,71.5200439 116.30731,71.5024712 C116.120162,71.4783086 115.942679,71.4545854 115.7753,71.4321801 C115.438345,71.3873696 115.150154,71.3456343 114.914681,71.3267435 C114.437585,71.2762219 114.145001,71.2384404 114.145001,71.2384404 C114.145001,71.2384404 114.389261,71.1202636 114.850541,70.9278418 C114.968278,70.881274 115.097436,70.8294344 115.238457,70.7732015 C115.377719,70.7231192 115.529722,70.6778693 115.69139,70.6242724 C115.853937,70.572872 116.027027,70.5175178 116.209782,70.4590884 C116.30072,70.4248215 116.396491,70.4151565 116.495337,70.4186711 C116.594183,70.4164745 116.693907,70.4046129 116.796707,70.3962658 C117.206149,70.3527732 117.651614,70.3347611 118.12256,70.3062054 C118.593505,70.2798462 119.090371,70.2512905 119.603491,70.2218561 C120.117929,70.1924217 120.639835,70.1950577 121.17536,70.1796815 C121.712642,70.1682592 122.260029,70.1568369 122.805658,70.1458539 C123.352605,70.1568369 123.899113,70.1682592 124.437713,70.1796815 C124.975874,70.1950577 125.506567,70.1928611 126.01793,70.2227348 C126.529732,70.2512905 127.0244,70.2798462 127.493149,70.3062054 C127.962777,70.3347611 128.402092,70.3518946 128.822956,70.3971444 C128.883142,70.4028556 128.941132,70.4054915 129,70.4098847 L129,67.590335 L127.291504,67.4888523 L125.048361,67.4106535 L122.805658,67.3917628 L120.547579,67.4124108 L118.320252,67.4906096 L116.077548,67.6228446 C115.331152,67.6852279 114.582559,67.734871 113.836602,67.8069193 C112.344249,67.9536518 110.852775,68.1126853 109.364375,68.3002746 C107.874219,68.481274 106.392409,68.7136738 104.915432,68.9636463 C103.44153,69.2250412 101.9729,69.5198243 100.528432,69.8559033 L99.4556246,70.1269632 C99.1046119,70.2240527 98.7571137,70.32905 98.4140087,70.4340472 C98.0897942,70.5500275 97.7414173,70.6646897 97.4971582,70.790335 L97.3956764,70.8355848 L97.3868901,70.8390994 L97.3390048,70.871609 C97.3060561,70.8953322 97.2454307,70.932235 97.2357657,70.9454146 C97.2274187,70.9572762 97.2181931,70.9678199 97.2076496,70.9766063 C97.1931522,70.9801208 97.1395557,71.04514 97.0982601,71.0886326 C97.05345,71.1308072 97.0117151,71.1953871 96.9673442,71.2511807 C96.6158922,71.7282812 96.3268229,72.3925316 96.0834424,73.0598572 C95.8418191,73.7359692 95.6247975,74.4393191 95.4416031,75.1562878 C95.0716999,76.5862713 94.7852665,78.0711697 94.5704414,79.5367381 L94.4838964,80.1263042 L93.9338739,80.1118067 C93.7533155,80.1065349 93.6215209,80.1355299 93.4941196,80.205821 C93.3689148,80.2822625 93.2322878,80.4017573 93.1246556,80.595497 C93.0622729,80.678089 93.0214166,80.7945085 92.9660629,80.8924767 L92.8347077,81.2320703 L92.7253183,81.5945085 L92.6361373,81.9727622 C92.5860554,82.2302032 92.532459,82.4885228 92.499071,82.7543108 C92.4590934,83.0187809 92.4287806,83.2854476 92.4024217,83.5551895 C92.347068,84.0911587 92.3171946,84.635475 92.284246,85.179352 L92.2491008,86.0021966 L92.2337248,86.8171334 C92.2319675,87.3623284 92.2473435,87.9053267 92.2961075,88.4439319 C92.3264202,88.7119165 92.3589295,88.9785832 92.4129653,89.241296 C92.4410814,89.3726524 92.4793019,89.498737 92.5122505,89.6292147 C92.5636503,89.7482702 92.5957203,89.8822625 92.6620569,89.9947282 C92.7714464,90.2341571 92.9432185,90.440637 93.1655119,90.5834157 C93.3869267,90.7266337 93.6597414,90.7942889 93.9338739,90.8158155 C93.6601807,90.830313 93.373308,90.8021966 93.1127941,90.67743 C92.8540376,90.55486 92.6326228,90.3422295 92.4841343,90.0975288 C92.395832,89.9802306 92.3461894,89.847117 92.2750204,89.7210324 C92.2231812,89.5887974 92.1660702,89.4565623 92.1212601,89.3216914 C92.0316398,89.0532674 91.9631067,88.778693 91.9020419,88.5041186 C91.794849,87.9523339 91.7241193,87.3983526 91.6696442,86.8430533 L91.6011111,86.0083471 L91.5536651,85.179352 C91.5273062,84.6231741 91.5154447,84.0656782 91.5259882,83.5033498 C91.5299421,83.2230643 91.5378497,82.9414607 91.5576189,82.6576606 C91.5699197,82.3742998 91.6033077,82.0896211 91.635817,81.8018671 L91.7003963,81.3695772 L91.7930918,80.9320154 C91.8348267,80.7844042 91.8761223,80.636793 91.9240077,80.4874245 C91.9881476,80.338056 92.0298826,80.1886875 92.115549,80.0397584 C92.2548119,79.7401428 92.4894061,79.4286656 92.8140599,79.1927512 C92.9722133,79.0750137 93.1545291,78.9902252 93.3407986,78.9309171 C93.4655641,77.5466227 93.6430474,76.1847337 93.9031219,74.810983 C94.0494138,74.0465678 94.2207467,73.2817133 94.452705,72.5168589 C94.6982821,71.7520044 94.9636284,70.985832 95.4697193,70.2073586 C95.5378131,70.1102691 95.5971207,70.0136189 95.6814691,69.9165294 C95.7653783,69.8172433 95.8255645,69.7302581 95.9564804,69.6098847 L96.1357209,69.4468973 C96.1950284,69.3946183 96.2174335,69.3836354 96.260047,69.3493685 L96.3167187,69.3067545 L96.3452742,69.2856672 C96.3769048,69.2654585 96.2956316,69.3168589 96.4190791,69.2369028 L96.4379696,69.2263591 L96.5908513,69.1446458 C97.0134723,68.9047776 97.3838149,68.7721032 97.7664583,68.6130697 C98.142512,68.4777595 98.5159297,68.3455244 98.8902262,68.2233937 L100.009601,67.8838001 C101.499757,67.4479956 103.003533,67.1264141 104.507308,66.8087864 C106.013719,66.5091708 107.522767,66.2288852 109.039282,66.0008786 C110.55404,65.7557386 112.076706,65.5699066 113.602887,65.4126304 C114.365977,65.3317957 115.131264,65.2733663 115.895672,65.2030752 L118.194168,65.0453597 L120.514191,64.942559 L122.805658,64.9030203 L125.113819,64.9443163 L127.418027,65.0462383 L129,65.1547501 L129,64.0924767 C129,62.2526085 128.723671,60.4773202 128.213187,58.8048325 C127.831422,58.7881384 127.452732,58.7705656 127.067453,58.7547501 C125.657691,58.7051071 124.24134,58.6624931 122.805658,58.7020319 C121.370416,58.6629325 119.954503,58.7055464 118.544741,58.7547501 C117.139373,58.8114223 115.75553,58.8742449 114.418695,58.9612301 C113.081859,59.0495332 111.791151,59.1536518 110.574688,59.2858869 C109.966676,59.35486 109.377115,59.4321801 108.81611,59.5327842 C108.536266,59.5846238 108.261694,59.6408567 108.004695,59.7120264 C107.87334,59.7449753 107.754286,59.7871499 107.63611,59.8297639 L107.489379,59.8996156 C107.434464,59.9360791 107.369446,59.9725426 107.324196,60.0081274 C106.941992,60.2928062 106.598887,60.6965404 106.302349,61.067765 C106.004055,61.4468973 105.732997,61.8207578 105.487859,62.1792422 C104.998462,62.8966502 104.601322,63.5450851 104.281061,64.0836903 C103.644054,65.1617792 103.299631,65.7917628 103.299631,65.7917628 C103.299631,65.7917628 103.372997,65.6283361 103.511381,65.3216914 C103.652401,65.0159253 103.858879,64.5678199 104.14707,64.0094454 C104.433064,63.4501922 104.789348,62.7749588 105.237889,62.0188907 C105.463258,61.641955 105.709274,61.2426139 106.001419,60.8401977 C106.299714,60.4373421 106.602841,60.0230643 107.067636,59.6417353 C107.126504,59.5929709 107.178783,59.5613399 107.235015,59.5200439 C107.317606,59.4699616 107.378232,59.4418451 107.452476,59.4027457 C107.589982,59.3460736 107.729684,59.291598 107.868508,59.2511807 C108.147473,59.1628775 108.430831,59.0991763 108.719021,59.036793 C109.295403,58.9172982 109.891993,58.8228446 110.505276,58.7362987 C111.732723,58.5636463 113.029141,58.4344865 114.372127,58.3268534 C115.715113,58.2187809 117.103788,58.1243273 118.517065,58.0672158 C119.925948,58.009665 121.376127,57.9582647 122.805658,57.9912136 C124.235628,57.9591433 125.685807,58.0101043 127.094691,58.0676551 C127.394304,58.0795167 127.687327,58.0992861 127.984743,58.1146623 C127.919285,57.9279517 127.850313,57.742559 127.779144,57.5584843 C127.762889,57.5576057 127.747074,57.5571664 127.730819,57.5562878 C126.097885,57.4943438 124.469783,57.4398682 122.805658,57.4908292 C121.141972,57.4411862 119.51431,57.4947831 117.880497,57.5571664 C116.25591,57.63229 114.654168,57.6933553 113.109536,57.8062603 C111.56754,57.9226798 110.07299,58.0347062 108.685633,58.2302032 C108.340332,58.2811642 107.999423,58.3330038 107.675209,58.4015376 C107.352312,58.4665568 107.029416,58.5451949 106.774613,58.6422845 C106.709594,58.6646897 106.670495,58.6901702 106.617338,58.7121362 L106.600644,58.7244371 L106.551002,58.7622186 L106.452595,58.8377814 C106.304985,58.9379462 106.227666,59.036793 106.133213,59.1330038 L105.991314,59.2771005 L105.845462,59.4545854 C105.75013,59.5736409 105.649967,59.6843493 105.560346,59.8069193 C104.833719,60.7791323 104.229661,61.7482702 103.70424,62.6066996 C103.184091,63.4708402 102.739065,64.2330588 102.380145,64.8652389 C101.667136,66.133553 101.259452,66.8588688 101.259452,66.8588688 C101.259452,66.8588688 101.547643,66.0764415 102.127099,64.7382757 C102.417487,64.0700714 102.77421,63.2582098 103.226266,62.3457441 C103.677881,61.4319605 104.194516,60.4052718 104.894784,59.332894 C104.98045,59.1980231 105.081932,59.0662273 105.176385,58.9300384 L105.322238,58.7261944 L105.504553,58.512246 C105.628879,58.3694673 105.759795,58.2135091 105.881486,58.1190555 L105.97462,58.0373421 L106.021188,57.9960461 L106.044911,57.9753981 L106.056772,57.9652938 C106.07742,57.9494783 106.025581,57.9855025 106.106854,57.9275124 C106.19911,57.8747941 106.301031,57.8097748 106.390652,57.7711148 C106.752647,57.600659 107.095752,57.5110379 107.447204,57.4183416 C107.798217,57.3260846 108.150548,57.2540362 108.50859,57.1828666 C109.93856,56.9082921 111.442775,56.7110379 113.003661,56.5577155 C114.563229,56.4074684 116.175076,56.2611752 117.817236,56.1847337 C118.638755,56.1429984 119.466864,56.1078528 120.301123,56.0845689 C120.719351,56.0762219 121.138457,56.0678748 121.558003,56.0599671 C121.965688,56.0542559 122.441905,56.0647996 122.805658,56.0691928 L122.934377,56.0705107 L123.096045,56.0661175 L123.418502,56.0608457 L124.054191,56.0608457 C124.473737,56.0691928 124.892844,56.0771005 125.311072,56.0850082 C125.935338,56.102581 126.553455,56.1315761 127.171132,56.1601318 C124.231235,50.1440967 118.054027,46 110.908568,46 L99.0918718,46 C89.1009692,46 81,54.0992861 81,64.0924767 L81,75.908402 C81,85.9007139 89.1009692,94 99.0918718,94 L110.908568,94 C120.352523,94 128.103797,86.7613399 128.923998,77.5286107 C128.856783,77.5207029 128.789568,77.5119165 128.720156,77.5057661 Z" id="Fill-17"></path>
        </g>
    </g>
</svg>