<?xml version="1.0" encoding="UTF-8"?>
<svg width="60px" height="61px" viewBox="0 0 60 61" version="1.1" xmlns="http://www.w3.org/2000/svg" xmlns:xlink="http://www.w3.org/1999/xlink">
    <!-- Generator: Sketch 50.2 (55047) - http://www.bohemiancoding.com/sketch -->
    <title>Group 7</title>
    <desc>Created with Sketch.</desc>
    <defs></defs>
    <g id="Page-6" stroke="none" stroke-width="1" fill="none" fill-rule="evenodd">
        <g id="OIUFTH1" transform="translate(-248.000000, -142.000000)" fill="#464644">
            <g id="Group-7" transform="translate(248.000000, 141.000000)">
                <path d="M21.715,20.291 C22.235,20.291 22.766,20.49 23.156,20.891 L29.406,27.141 L31.166,25.381 L23.056,17.271 C24.836,13.691 24.636,9.281 22.186,5.781 C19.785,2.371 15.855,0.691 11.985,1.031 L17.156,8.4 C17.865,9.421 17.615,10.811 16.605,11.521 L11.016,15.451 C9.996,16.16 8.605,15.921 7.896,14.9 L2.715,7.521 C1.086,11.061 1.326,15.33 3.715,18.74 C6.556,22.781 11.556,24.391 16.065,23.101 L24.756,31.791 L26.525,30.031 L20.275,23.781 C19.476,22.98 19.476,21.691 20.275,20.891 C20.666,20.49 21.195,20.291 21.715,20.291 Z M57.065,43.65 C54.295,39.621 49.386,37.951 44.916,39.131 L36.576,30.791 L34.815,32.551 L40.416,38.15 C41.215,38.951 41.215,40.24 40.416,41.041 C40.016,41.441 39.496,41.641 38.965,41.641 C38.445,41.641 37.926,41.441 37.525,41.041 L31.926,35.431 L30.166,37.201 L37.785,44.82 C35.916,48.4 36.035,52.861 38.476,56.421 C40.836,59.861 44.756,61.57 48.636,61.281 L43.535,53.851 C42.836,52.83 43.096,51.451 44.115,50.74 L49.746,46.871 C50.766,46.171 52.156,46.431 52.865,47.441 L57.955,54.871 C59.625,51.361 59.426,47.08 57.065,43.65 Z" id="Fill-19"></path>
                <path d="M28.195,41.441 C27.816,41.82 27.199,41.82 26.82,41.441 L20.514,35.135 C20.134,34.755 20.134,34.14 20.514,33.76 L20.852,33.422 C21.23,33.043 21.847,33.043 22.227,33.422 L28.533,39.729 C28.912,40.108 28.912,40.725 28.533,41.104 L28.195,41.441" id="Fill-20"></path>
                <path d="M25.396,42.841 L11.615,57.871 L9.916,59.721 C9.386,60.251 8.785,60.65 8.125,60.91 C7.625,61.121 7.115,61.24 6.596,61.281 C6.426,61.301 6.256,61.311 6.076,61.311 C4.686,61.32 3.295,60.791 2.235,59.73 C0.105,57.601 0.105,54.16 2.235,52.041 L19.105,36.561 L25.396,42.841" id="Fill-21"></path>
                <path d="M53.625,10.73 L51.006,14.851 L48.686,15.841 L27.875,36.66 L25.295,34.08 L46.115,13.261 L47.105,10.951 L51.226,8.33 L51.445,8.551 L48.406,11.091 C47.875,11.621 48.115,12.761 48.646,13.301 C49.195,13.841 50.365,14.16 50.906,13.621 L53.396,10.501 L53.625,10.73" id="Fill-22"></path>
            </g>
        </g>
    </g>
</svg>